<mxfile host="app.diagrams.net" modified="2022-04-24T10:59:23.354Z" agent="5.0 (Macintosh; Intel Mac OS X 10_15_7) AppleWebKit/537.36 (KHTML, like Gecko) Chrome/100.0.4896.127 Safari/537.36" etag="CSU13cis0DWLIbjXNpSj" version="17.4.6" type="github">
  <diagram id="LwW9lUbkGG1r4moRVSbL" name="Page-1">
    <mxGraphModel dx="1555" dy="475" grid="1" gridSize="10" guides="1" tooltips="1" connect="1" arrows="1" fold="1" page="1" pageScale="1" pageWidth="827" pageHeight="1169" math="0" shadow="0">
      <root>
        <mxCell id="0" />
        <mxCell id="1" parent="0" />
        <mxCell id="q81UDSc-nb6d2IdDGGGg-58" style="edgeStyle=orthogonalEdgeStyle;rounded=0;orthogonalLoop=1;jettySize=auto;html=1;exitX=0;exitY=0.5;exitDx=0;exitDy=0;endArrow=none;endFill=0;entryX=1;entryY=0;entryDx=0;entryDy=90;entryPerimeter=0;" edge="1" parent="1" source="q81UDSc-nb6d2IdDGGGg-3" target="q81UDSc-nb6d2IdDGGGg-55">
          <mxGeometry relative="1" as="geometry">
            <mxPoint x="130" y="410" as="targetPoint" />
            <Array as="points">
              <mxPoint x="821" y="370" />
              <mxPoint x="120" y="370" />
              <mxPoint x="120" y="530" />
            </Array>
          </mxGeometry>
        </mxCell>
        <mxCell id="q81UDSc-nb6d2IdDGGGg-69" style="edgeStyle=orthogonalEdgeStyle;rounded=0;orthogonalLoop=1;jettySize=auto;html=1;exitX=0.25;exitY=1;exitDx=0;exitDy=0;endArrow=none;endFill=0;entryX=1;entryY=0.8;entryDx=0;entryDy=0;" edge="1" parent="1" source="q81UDSc-nb6d2IdDGGGg-3" target="q81UDSc-nb6d2IdDGGGg-12">
          <mxGeometry relative="1" as="geometry">
            <mxPoint x="330" y="490" as="targetPoint" />
          </mxGeometry>
        </mxCell>
        <mxCell id="q81UDSc-nb6d2IdDGGGg-70" style="edgeStyle=orthogonalEdgeStyle;rounded=0;orthogonalLoop=1;jettySize=auto;html=1;exitX=0.5;exitY=1;exitDx=0;exitDy=0;entryX=0;entryY=0.57;entryDx=0;entryDy=0;entryPerimeter=0;endArrow=none;endFill=0;" edge="1" parent="1" source="q81UDSc-nb6d2IdDGGGg-3" target="q81UDSc-nb6d2IdDGGGg-34">
          <mxGeometry relative="1" as="geometry" />
        </mxCell>
        <mxCell id="q81UDSc-nb6d2IdDGGGg-3" value="" style="shape=image;verticalLabelPosition=bottom;labelBackgroundColor=default;verticalAlign=top;aspect=fixed;imageAspect=0;image=https://www.pjrc.com/store/teensy40_front.jpg;direction=south;" vertex="1" parent="1">
          <mxGeometry x="760" y="390.17999999999995" width="121.92" height="249.82" as="geometry" />
        </mxCell>
        <mxCell id="q81UDSc-nb6d2IdDGGGg-5" style="edgeStyle=orthogonalEdgeStyle;rounded=0;orthogonalLoop=1;jettySize=auto;html=1;exitX=0.5;exitY=1;exitDx=0;exitDy=0;exitPerimeter=0;" edge="1" parent="1" source="q81UDSc-nb6d2IdDGGGg-1" target="q81UDSc-nb6d2IdDGGGg-1">
          <mxGeometry relative="1" as="geometry" />
        </mxCell>
        <mxCell id="q81UDSc-nb6d2IdDGGGg-25" style="edgeStyle=orthogonalEdgeStyle;rounded=0;orthogonalLoop=1;jettySize=auto;html=1;exitX=0;exitY=0.8;exitDx=0;exitDy=0;entryX=0;entryY=0.5;entryDx=0;entryDy=0;entryPerimeter=0;endArrow=none;endFill=0;" edge="1" parent="1" source="q81UDSc-nb6d2IdDGGGg-10" target="q81UDSc-nb6d2IdDGGGg-17">
          <mxGeometry relative="1" as="geometry" />
        </mxCell>
        <mxCell id="q81UDSc-nb6d2IdDGGGg-10" value="" style="pointerEvents=1;verticalLabelPosition=bottom;shadow=0;dashed=0;align=center;html=1;verticalAlign=top;shape=mxgraph.electrical.electro-mechanical.circuitBreaker2;elSwitchState=off;direction=north;" vertex="1" parent="1">
          <mxGeometry x="380" y="528.04" width="20" height="75" as="geometry" />
        </mxCell>
        <mxCell id="q81UDSc-nb6d2IdDGGGg-26" style="edgeStyle=orthogonalEdgeStyle;rounded=0;orthogonalLoop=1;jettySize=auto;html=1;exitX=0;exitY=0.8;exitDx=0;exitDy=0;endArrow=none;endFill=0;entryX=0;entryY=0.5;entryDx=0;entryDy=0;entryPerimeter=0;" edge="1" parent="1" source="q81UDSc-nb6d2IdDGGGg-11" target="q81UDSc-nb6d2IdDGGGg-19">
          <mxGeometry relative="1" as="geometry">
            <mxPoint x="360" y="590.1800000000001" as="targetPoint" />
          </mxGeometry>
        </mxCell>
        <mxCell id="q81UDSc-nb6d2IdDGGGg-62" style="edgeStyle=orthogonalEdgeStyle;rounded=0;orthogonalLoop=1;jettySize=auto;html=1;exitX=1;exitY=0.8;exitDx=0;exitDy=0;endArrow=none;endFill=0;" edge="1" parent="1" source="q81UDSc-nb6d2IdDGGGg-11">
          <mxGeometry relative="1" as="geometry">
            <mxPoint x="357.30769230769215" y="510" as="targetPoint" />
          </mxGeometry>
        </mxCell>
        <mxCell id="q81UDSc-nb6d2IdDGGGg-11" value="" style="pointerEvents=1;verticalLabelPosition=bottom;shadow=0;dashed=0;align=center;html=1;verticalAlign=top;shape=mxgraph.electrical.electro-mechanical.circuitBreaker2;elSwitchState=off;direction=north;" vertex="1" parent="1">
          <mxGeometry x="341" y="528.04" width="20" height="75" as="geometry" />
        </mxCell>
        <mxCell id="q81UDSc-nb6d2IdDGGGg-27" style="edgeStyle=orthogonalEdgeStyle;rounded=0;orthogonalLoop=1;jettySize=auto;html=1;exitX=0;exitY=0.8;exitDx=0;exitDy=0;entryX=0;entryY=0.5;entryDx=0;entryDy=0;entryPerimeter=0;endArrow=none;endFill=0;" edge="1" parent="1" source="q81UDSc-nb6d2IdDGGGg-12" target="q81UDSc-nb6d2IdDGGGg-21">
          <mxGeometry relative="1" as="geometry" />
        </mxCell>
        <mxCell id="q81UDSc-nb6d2IdDGGGg-63" style="edgeStyle=orthogonalEdgeStyle;rounded=0;orthogonalLoop=1;jettySize=auto;html=1;exitX=1;exitY=0.8;exitDx=0;exitDy=0;endArrow=none;endFill=0;" edge="1" parent="1" source="q81UDSc-nb6d2IdDGGGg-12">
          <mxGeometry relative="1" as="geometry">
            <mxPoint x="317.30769230769215" y="510" as="targetPoint" />
          </mxGeometry>
        </mxCell>
        <mxCell id="q81UDSc-nb6d2IdDGGGg-12" value="" style="pointerEvents=1;verticalLabelPosition=bottom;shadow=0;dashed=0;align=center;html=1;verticalAlign=top;shape=mxgraph.electrical.electro-mechanical.circuitBreaker2;elSwitchState=off;direction=north;" vertex="1" parent="1">
          <mxGeometry x="301" y="528.04" width="20" height="75" as="geometry" />
        </mxCell>
        <mxCell id="q81UDSc-nb6d2IdDGGGg-28" style="edgeStyle=orthogonalEdgeStyle;rounded=0;orthogonalLoop=1;jettySize=auto;html=1;exitX=0;exitY=0.8;exitDx=0;exitDy=0;entryX=0;entryY=0.5;entryDx=0;entryDy=0;entryPerimeter=0;endArrow=none;endFill=0;" edge="1" parent="1" source="q81UDSc-nb6d2IdDGGGg-13" target="q81UDSc-nb6d2IdDGGGg-22">
          <mxGeometry relative="1" as="geometry" />
        </mxCell>
        <mxCell id="q81UDSc-nb6d2IdDGGGg-64" style="edgeStyle=orthogonalEdgeStyle;rounded=0;orthogonalLoop=1;jettySize=auto;html=1;exitX=1;exitY=0.8;exitDx=0;exitDy=0;endArrow=none;endFill=0;" edge="1" parent="1" source="q81UDSc-nb6d2IdDGGGg-13">
          <mxGeometry relative="1" as="geometry">
            <mxPoint x="279.6153846153845" y="510" as="targetPoint" />
          </mxGeometry>
        </mxCell>
        <mxCell id="q81UDSc-nb6d2IdDGGGg-13" value="" style="pointerEvents=1;verticalLabelPosition=bottom;shadow=0;dashed=0;align=center;html=1;verticalAlign=top;shape=mxgraph.electrical.electro-mechanical.circuitBreaker2;elSwitchState=off;direction=north;" vertex="1" parent="1">
          <mxGeometry x="263.5" y="528.0400000000001" width="20" height="75" as="geometry" />
        </mxCell>
        <mxCell id="q81UDSc-nb6d2IdDGGGg-29" style="edgeStyle=orthogonalEdgeStyle;rounded=0;orthogonalLoop=1;jettySize=auto;html=1;exitX=0;exitY=0.8;exitDx=0;exitDy=0;entryX=0;entryY=0.5;entryDx=0;entryDy=0;entryPerimeter=0;endArrow=none;endFill=0;" edge="1" parent="1" source="q81UDSc-nb6d2IdDGGGg-14" target="q81UDSc-nb6d2IdDGGGg-23">
          <mxGeometry relative="1" as="geometry" />
        </mxCell>
        <mxCell id="q81UDSc-nb6d2IdDGGGg-61" style="edgeStyle=orthogonalEdgeStyle;rounded=0;orthogonalLoop=1;jettySize=auto;html=1;exitX=1;exitY=0.8;exitDx=0;exitDy=0;entryX=1;entryY=0.8;entryDx=0;entryDy=0;endArrow=none;endFill=0;" edge="1" parent="1" source="q81UDSc-nb6d2IdDGGGg-14" target="q81UDSc-nb6d2IdDGGGg-10">
          <mxGeometry relative="1" as="geometry" />
        </mxCell>
        <mxCell id="q81UDSc-nb6d2IdDGGGg-14" value="" style="pointerEvents=1;verticalLabelPosition=bottom;shadow=0;dashed=0;align=center;html=1;verticalAlign=top;shape=mxgraph.electrical.electro-mechanical.circuitBreaker2;elSwitchState=off;direction=north;" vertex="1" parent="1">
          <mxGeometry x="220" y="528.04" width="20" height="75" as="geometry" />
        </mxCell>
        <mxCell id="q81UDSc-nb6d2IdDGGGg-17" value="" style="pointerEvents=1;verticalLabelPosition=bottom;shadow=0;dashed=0;align=center;html=1;verticalAlign=top;shape=mxgraph.electrical.resistors.resistor_1;direction=south;" vertex="1" parent="1">
          <mxGeometry x="380" y="620.1800000000001" width="20" height="100" as="geometry" />
        </mxCell>
        <mxCell id="q81UDSc-nb6d2IdDGGGg-19" value="" style="pointerEvents=1;verticalLabelPosition=bottom;shadow=0;dashed=0;align=center;html=1;verticalAlign=top;shape=mxgraph.electrical.resistors.resistor_1;direction=south;" vertex="1" parent="1">
          <mxGeometry x="341" y="620.1800000000001" width="20" height="100" as="geometry" />
        </mxCell>
        <mxCell id="q81UDSc-nb6d2IdDGGGg-21" value="" style="pointerEvents=1;verticalLabelPosition=bottom;shadow=0;dashed=0;align=center;html=1;verticalAlign=top;shape=mxgraph.electrical.resistors.resistor_1;direction=south;" vertex="1" parent="1">
          <mxGeometry x="301" y="620.1800000000001" width="20" height="100" as="geometry" />
        </mxCell>
        <mxCell id="q81UDSc-nb6d2IdDGGGg-22" value="" style="pointerEvents=1;verticalLabelPosition=bottom;shadow=0;dashed=0;align=center;html=1;verticalAlign=top;shape=mxgraph.electrical.resistors.resistor_1;direction=south;" vertex="1" parent="1">
          <mxGeometry x="263.5" y="620.1800000000001" width="20" height="100" as="geometry" />
        </mxCell>
        <mxCell id="q81UDSc-nb6d2IdDGGGg-23" value="" style="pointerEvents=1;verticalLabelPosition=bottom;shadow=0;dashed=0;align=center;html=1;verticalAlign=top;shape=mxgraph.electrical.resistors.resistor_1;direction=south;" vertex="1" parent="1">
          <mxGeometry x="220" y="620.1800000000001" width="20" height="100" as="geometry" />
        </mxCell>
        <mxCell id="q81UDSc-nb6d2IdDGGGg-31" style="edgeStyle=orthogonalEdgeStyle;rounded=0;orthogonalLoop=1;jettySize=auto;html=1;exitX=0.5;exitY=0;exitDx=0;exitDy=0;exitPerimeter=0;endArrow=none;endFill=0;" edge="1" parent="1" source="q81UDSc-nb6d2IdDGGGg-30">
          <mxGeometry relative="1" as="geometry">
            <mxPoint x="-60" y="720" as="targetPoint" />
            <Array as="points">
              <mxPoint x="710" y="720.1800000000001" />
              <mxPoint x="710" y="720.1800000000001" />
            </Array>
          </mxGeometry>
        </mxCell>
        <mxCell id="q81UDSc-nb6d2IdDGGGg-57" style="edgeStyle=orthogonalEdgeStyle;rounded=0;orthogonalLoop=1;jettySize=auto;html=1;exitX=0.5;exitY=0;exitDx=0;exitDy=0;exitPerimeter=0;endArrow=none;endFill=0;" edge="1" parent="1" source="q81UDSc-nb6d2IdDGGGg-30" target="q81UDSc-nb6d2IdDGGGg-3">
          <mxGeometry relative="1" as="geometry" />
        </mxCell>
        <mxCell id="q81UDSc-nb6d2IdDGGGg-30" value="" style="pointerEvents=1;verticalLabelPosition=bottom;shadow=0;dashed=0;align=center;html=1;verticalAlign=top;shape=mxgraph.electrical.signal_sources.signal_ground;" vertex="1" parent="1">
          <mxGeometry x="789" y="720.1800000000001" width="45" height="30" as="geometry" />
        </mxCell>
        <mxCell id="q81UDSc-nb6d2IdDGGGg-65" style="edgeStyle=orthogonalEdgeStyle;rounded=0;orthogonalLoop=1;jettySize=auto;html=1;exitX=0;exitY=0.57;exitDx=0;exitDy=0;exitPerimeter=0;entryX=0;entryY=0.57;entryDx=0;entryDy=0;entryPerimeter=0;endArrow=none;endFill=0;" edge="1" parent="1" source="q81UDSc-nb6d2IdDGGGg-32" target="q81UDSc-nb6d2IdDGGGg-36">
          <mxGeometry relative="1" as="geometry" />
        </mxCell>
        <mxCell id="q81UDSc-nb6d2IdDGGGg-32" value="" style="verticalLabelPosition=bottom;shadow=0;dashed=0;align=center;html=1;verticalAlign=top;shape=mxgraph.electrical.opto_electronics.led_2;pointerEvents=1;direction=south;" vertex="1" parent="1">
          <mxGeometry x="513.57" y="560.1800000000001" width="30" height="42.86" as="geometry" />
        </mxCell>
        <mxCell id="q81UDSc-nb6d2IdDGGGg-68" style="edgeStyle=orthogonalEdgeStyle;rounded=0;orthogonalLoop=1;jettySize=auto;html=1;exitX=0;exitY=0.57;exitDx=0;exitDy=0;exitPerimeter=0;endArrow=none;endFill=0;" edge="1" parent="1" source="q81UDSc-nb6d2IdDGGGg-33">
          <mxGeometry relative="1" as="geometry">
            <mxPoint x="569.6153846153848" y="540" as="targetPoint" />
          </mxGeometry>
        </mxCell>
        <mxCell id="q81UDSc-nb6d2IdDGGGg-33" value="" style="verticalLabelPosition=bottom;shadow=0;dashed=0;align=center;html=1;verticalAlign=top;shape=mxgraph.electrical.opto_electronics.led_2;pointerEvents=1;direction=south;" vertex="1" parent="1">
          <mxGeometry x="557.07" y="560.1800000000001" width="30" height="42.86" as="geometry" />
        </mxCell>
        <mxCell id="q81UDSc-nb6d2IdDGGGg-67" style="edgeStyle=orthogonalEdgeStyle;rounded=0;orthogonalLoop=1;jettySize=auto;html=1;exitX=0;exitY=0.57;exitDx=0;exitDy=0;exitPerimeter=0;endArrow=none;endFill=0;" edge="1" parent="1" source="q81UDSc-nb6d2IdDGGGg-34">
          <mxGeometry relative="1" as="geometry">
            <mxPoint x="612.6923076923076" y="540" as="targetPoint" />
          </mxGeometry>
        </mxCell>
        <mxCell id="q81UDSc-nb6d2IdDGGGg-34" value="" style="verticalLabelPosition=bottom;shadow=0;dashed=0;align=center;html=1;verticalAlign=top;shape=mxgraph.electrical.opto_electronics.led_2;pointerEvents=1;direction=south;" vertex="1" parent="1">
          <mxGeometry x="599.57" y="560.1800000000001" width="30" height="42.86" as="geometry" />
        </mxCell>
        <mxCell id="q81UDSc-nb6d2IdDGGGg-66" style="edgeStyle=orthogonalEdgeStyle;rounded=0;orthogonalLoop=1;jettySize=auto;html=1;exitX=0;exitY=0.57;exitDx=0;exitDy=0;exitPerimeter=0;endArrow=none;endFill=0;" edge="1" parent="1" source="q81UDSc-nb6d2IdDGGGg-35">
          <mxGeometry relative="1" as="geometry">
            <mxPoint x="647.3076923076924" y="540" as="targetPoint" />
          </mxGeometry>
        </mxCell>
        <mxCell id="q81UDSc-nb6d2IdDGGGg-35" value="" style="verticalLabelPosition=bottom;shadow=0;dashed=0;align=center;html=1;verticalAlign=top;shape=mxgraph.electrical.opto_electronics.led_2;pointerEvents=1;direction=south;" vertex="1" parent="1">
          <mxGeometry x="634.57" y="560.1800000000001" width="30" height="42.86" as="geometry" />
        </mxCell>
        <mxCell id="q81UDSc-nb6d2IdDGGGg-36" value="" style="verticalLabelPosition=bottom;shadow=0;dashed=0;align=center;html=1;verticalAlign=top;shape=mxgraph.electrical.opto_electronics.led_2;pointerEvents=1;direction=south;" vertex="1" parent="1">
          <mxGeometry x="678.57" y="560.1800000000001" width="30" height="42.86" as="geometry" />
        </mxCell>
        <mxCell id="q81UDSc-nb6d2IdDGGGg-52" style="edgeStyle=orthogonalEdgeStyle;rounded=0;orthogonalLoop=1;jettySize=auto;html=1;exitX=0;exitY=0.5;exitDx=0;exitDy=0;exitPerimeter=0;entryX=1;entryY=0.57;entryDx=0;entryDy=0;entryPerimeter=0;endArrow=none;endFill=0;" edge="1" parent="1" source="q81UDSc-nb6d2IdDGGGg-42" target="q81UDSc-nb6d2IdDGGGg-36">
          <mxGeometry relative="1" as="geometry" />
        </mxCell>
        <mxCell id="q81UDSc-nb6d2IdDGGGg-42" value="" style="pointerEvents=1;verticalLabelPosition=bottom;shadow=0;dashed=0;align=center;html=1;verticalAlign=top;shape=mxgraph.electrical.resistors.resistor_1;direction=south;" vertex="1" parent="1">
          <mxGeometry x="678.5699999999999" y="620.1800000000001" width="20" height="100" as="geometry" />
        </mxCell>
        <mxCell id="q81UDSc-nb6d2IdDGGGg-50" style="edgeStyle=orthogonalEdgeStyle;rounded=0;orthogonalLoop=1;jettySize=auto;html=1;exitX=0;exitY=0.5;exitDx=0;exitDy=0;exitPerimeter=0;entryX=1;entryY=0.57;entryDx=0;entryDy=0;entryPerimeter=0;endArrow=none;endFill=0;" edge="1" parent="1" source="q81UDSc-nb6d2IdDGGGg-43" target="q81UDSc-nb6d2IdDGGGg-35">
          <mxGeometry relative="1" as="geometry" />
        </mxCell>
        <mxCell id="q81UDSc-nb6d2IdDGGGg-43" value="" style="pointerEvents=1;verticalLabelPosition=bottom;shadow=0;dashed=0;align=center;html=1;verticalAlign=top;shape=mxgraph.electrical.resistors.resistor_1;direction=south;" vertex="1" parent="1">
          <mxGeometry x="639.5699999999999" y="620.1800000000001" width="20" height="100" as="geometry" />
        </mxCell>
        <mxCell id="q81UDSc-nb6d2IdDGGGg-49" style="edgeStyle=orthogonalEdgeStyle;rounded=0;orthogonalLoop=1;jettySize=auto;html=1;exitX=0;exitY=0.5;exitDx=0;exitDy=0;exitPerimeter=0;entryX=1;entryY=0.57;entryDx=0;entryDy=0;entryPerimeter=0;endArrow=none;endFill=0;" edge="1" parent="1" source="q81UDSc-nb6d2IdDGGGg-44" target="q81UDSc-nb6d2IdDGGGg-34">
          <mxGeometry relative="1" as="geometry" />
        </mxCell>
        <mxCell id="q81UDSc-nb6d2IdDGGGg-44" value="" style="pointerEvents=1;verticalLabelPosition=bottom;shadow=0;dashed=0;align=center;html=1;verticalAlign=top;shape=mxgraph.electrical.resistors.resistor_1;direction=south;" vertex="1" parent="1">
          <mxGeometry x="599.5699999999999" y="620.1800000000001" width="20" height="100" as="geometry" />
        </mxCell>
        <mxCell id="q81UDSc-nb6d2IdDGGGg-48" style="edgeStyle=orthogonalEdgeStyle;rounded=0;orthogonalLoop=1;jettySize=auto;html=1;exitX=0;exitY=0.5;exitDx=0;exitDy=0;exitPerimeter=0;entryX=1;entryY=0.57;entryDx=0;entryDy=0;entryPerimeter=0;endArrow=none;endFill=0;" edge="1" parent="1" source="q81UDSc-nb6d2IdDGGGg-45" target="q81UDSc-nb6d2IdDGGGg-33">
          <mxGeometry relative="1" as="geometry" />
        </mxCell>
        <mxCell id="q81UDSc-nb6d2IdDGGGg-45" value="" style="pointerEvents=1;verticalLabelPosition=bottom;shadow=0;dashed=0;align=center;html=1;verticalAlign=top;shape=mxgraph.electrical.resistors.resistor_1;direction=south;" vertex="1" parent="1">
          <mxGeometry x="562.0699999999999" y="620.1800000000001" width="20" height="100" as="geometry" />
        </mxCell>
        <mxCell id="q81UDSc-nb6d2IdDGGGg-47" style="edgeStyle=orthogonalEdgeStyle;rounded=0;orthogonalLoop=1;jettySize=auto;html=1;exitX=0;exitY=0.5;exitDx=0;exitDy=0;exitPerimeter=0;entryX=1;entryY=0.57;entryDx=0;entryDy=0;entryPerimeter=0;endArrow=none;endFill=0;" edge="1" parent="1" source="q81UDSc-nb6d2IdDGGGg-46" target="q81UDSc-nb6d2IdDGGGg-32">
          <mxGeometry relative="1" as="geometry" />
        </mxCell>
        <mxCell id="q81UDSc-nb6d2IdDGGGg-46" value="" style="pointerEvents=1;verticalLabelPosition=bottom;shadow=0;dashed=0;align=center;html=1;verticalAlign=top;shape=mxgraph.electrical.resistors.resistor_1;direction=south;" vertex="1" parent="1">
          <mxGeometry x="518.5699999999999" y="620.1800000000001" width="20" height="100" as="geometry" />
        </mxCell>
        <mxCell id="q81UDSc-nb6d2IdDGGGg-53" value="" style="shape=image;verticalLabelPosition=bottom;labelBackgroundColor=default;verticalAlign=top;aspect=fixed;imageAspect=0;image=data:image/png,iVBORw0KGgoAAAANSUhEUgAAAqoAAAEmCAYAAACqH7JUAAAMbWlDQ1BJQ0MgUHJvZmlsZQAASImVVwdYU8kWnluSkJDQAghICb0jUgNICaEFkF4EGyEJJJQYE4KKvSwquHYRxYquiii2lWYBsSuLYu+LBRVlXdTFhsqbkICu+8r3zvfNvX/OnPlPuTO59wCg+YErkeShWgDkiwukCeHBjDFp6QzSU4ADGtAFzsCYy5NJWHFx0QDK4P3v8u4GQBT3q84Krn/O/1fR4QtkPACQcRBn8mW8fIibAcA38CTSAgCICr3llAKJAs+BWFcKA4R4tQJnK/EuBc5U4qMDNkkJbIgvA6BG5XKl2QBo3IN6RiEvG/JofIbYVcwXiQHQdII4gCfk8iFWxO6Unz9JgcshtoP2EohhPICZ+R1n9t/4M4f4udzsIazMa0DUQkQySR532v9Zmv8t+XnyQR82cFCF0ogERf6whrdyJ0UpMBXibnFmTKyi1hB/EPGVdQcApQjlEclKe9SYJ2PD+gF9iF353JAoiI0hDhPnxUSr9JlZojAOxHC3oFNFBZwkiA0gXiSQhSaqbLZIJyWofKG1WVI2S6U/x5UO+FX4eiDPTWap+N8IBRwVP6ZRJExKhZgCsVWhKCUGYg2IXWS5iVEqm1FFQnbMoI1UnqCI3wriBIE4PFjJjxVmScMSVPYl+bLBfLEtQhEnRoUPFgiTIpT1wU7xuAPxw1ywywIxK3mQRyAbEz2YC18QEqrMHXsuECcnqng+SAqCE5RrcYokL05lj1sI8sIVeguIPWSFiaq1eEoB3JxKfjxLUhCXpIwTL8rhRsYp48GXg2jABiGAAeRwZIJJIAeI2rrruuEv5UwY4AIpyAYCeEKVmsEVqQMzYnhNBEXgD4gEQDa0LnhgVgAKof7LkFZ5dQZZA7OFAytywVOI80EUyIO/5QOrxEPeUsATqBH9wzsXDh6MNw8Oxfy/1w9qv2lYUBOt0sgHPTI0By2JocQQYgQxjGiPG+EBuB8eDa9BcLjhTNxnMI9v9oSnhHbCI8J1Qgfh9kTRPOkPUY4GHZA/TFWLzO9rgdtATk88GPeH7JAZ18eNgDPuAf2w8EDo2RNq2aq4FVVh/MD9twy+exoqO7IrGSUPIweR7X5cqeGg4TnEoqj19/VRxpo5VG/20MyP/tnfVZ8P71E/WmKLsEPYWewEdh47itUBBtaE1WOt2DEFHtpdTwZ216C3hIF4ciGP6B/+Bp+sopIy12rXLtfPyrkCwdQCxcFjT5JMk4qyhQUMFnw7CBgcMc/FieHm6uYGgOJdo/z7ehs/8A5B9Fu/6eb/DoB/U39//5FvusgmAA54w+Pf8E1nxwRAWx2Acw08ubRQqcMVFwL8l9CEJ80QmAJLYAfzcQNewA8EgVAQCWJBEkgDE2D0QrjPpWAKmAHmgmJQCpaDNWA92Ay2gV1gLzgI6sBRcAKcARfBZXAd3IW7pxO8BD3gHehDEISE0BA6YoiYIdaII+KGMJEAJBSJRhKQNCQDyUbEiByZgcxHSpGVyHpkK1KFHEAakBPIeaQduY08RLqQN8gnFEOpqC5qgtqgI1AmykKj0CR0PJqNTkaL0AXoUrQcrUT3oLXoCfQieh3tQF+ivRjA1DF9zBxzxpgYG4vF0rEsTIrNwkqwMqwSq8Ea4XO+inVg3dhHnIjTcQbuDHdwBJ6M8/DJ+Cx8Cb4e34XX4qfwq/hDvAf/SqARjAmOBF8ChzCGkE2YQigmlBF2EA4TTsOz1El4RyQS9Ym2RG94FtOIOcTpxCXEjcR9xGZiO/ExsZdEIhmSHEn+pFgSl1RAKiatI+0hNZGukDpJH9TU1czU3NTC1NLVxGrz1MrUdqsdV7ui9kytj6xFtib7kmPJfPI08jLydnIj+RK5k9xH0abYUvwpSZQcylxKOaWGcppyj/JWXV3dQt1HPV5dpD5HvVx9v/o59YfqH6k6VAcqmzqOKqcupe6kNlNvU9/SaDQbWhAtnVZAW0qrop2kPaB90KBruGhwNPgaszUqNGo1rmi80iRrWmuyNCdoFmmWaR7SvKTZrUXWstFia3G1ZmlVaDVo3dTq1aZrj9SO1c7XXqK9W/u89nMdko6NTqgOX2eBzjadkzqP6Rjdks6m8+jz6dvpp+mdukRdW12Obo5uqe5e3TbdHj0dPQ+9FL2pehV6x/Q69DF9G32Ofp7+Mv2D+jf0Pw0zGcYaJhi2eFjNsCvD3hsMNwgyEBiUGOwzuG7wyZBhGGqYa7jCsM7wvhFu5GAUbzTFaJPRaaPu4brD/YbzhpcMPzj8jjFq7GCcYDzdeJtxq3GvialJuInEZJ3JSZNuU33TINMc09Wmx027zOhmAWYis9VmTWYvGHoMFiOPUc44xegxNzaPMJebbzVvM++zsLVItphnsc/iviXFkmmZZbnassWyx8rMarTVDKtqqzvWZGumtdB6rfVZ6/c2tjapNgtt6mye2xrYcmyLbKtt79nR7ALtJttV2l2zJ9oz7XPtN9pfdkAdPB2EDhUOlxxRRy9HkeNGx3YngpOPk9ip0ummM9WZ5VzoXO380EXfJdplnkudy6sRViPSR6wYcXbEV1dP1zzX7a53R+qMjBw5b2TjyDduDm48twq3a+409zD32e717q89HD0EHps8bnnSPUd7LvRs8fzi5e0l9arx6vK28s7w3uB9k6nLjGMuYZ7zIfgE+8z2Oerz0dfLt8D3oO+ffs5+uX67/Z6Psh0lGLV91GN/C3+u/1b/jgBGQEbAloCOQPNAbmBl4KMgyyB+0I6gZyx7Vg5rD+tVsGuwNPhw8Hu2L3smuzkECwkPKQlpC9UJTQ5dH/ogzCIsO6w6rCfcM3x6eHMEISIqYkXETY4Jh8ep4vREekfOjDwVRY1KjFof9SjaIVoa3TgaHR05etXoezHWMeKYulgQy4ldFXs/zjZuctyReGJ8XHxF/NOEkQkzEs4m0hMnJu5OfJcUnLQs6W6yXbI8uSVFM2VcSlXK+9SQ1JWpHWNGjJk55mKaUZoorT6dlJ6SviO9d2zo2DVjO8d5jised2O87fip489PMJqQN+HYRM2J3ImHMggZqRm7Mz5zY7mV3N5MTuaGzB4em7eW95IfxF/N7xL4C1YKnmX5Z63Mep7tn70qu0sYKCwTdovYovWi1zkROZtz3ufG5u7M7c9LzduXr5afkd8g1hHnik9NMp00dVK7xFFSLOmY7Dt5zeQeaZR0hwyRjZfVF+jCj/pWuZ38J/nDwoDCisIPU1KmHJqqPVU8tXWaw7TF054VhRX9Mh2fzpveMsN8xtwZD2eyZm6dhczKnNUy23L2gtmdc8Ln7JpLmZs797d5rvNWzvtrfur8xgUmC+YsePxT+E/VxRrF0uKbC/0Wbl6ELxItalvsvnjd4q8l/JILpa6lZaWfl/CWXPh55M/lP/cvzVratsxr2ablxOXi5TdWBK7YtVJ7ZdHKx6tGr6pdzVhdsvqvNRPXnC/zKNu8lrJWvrajPLq8fp3VuuXrPq8Xrr9eEVyxb4PxhsUb3m/kb7yyKWhTzWaTzaWbP20Rbbm1NXxrbaVNZdk24rbCbU+3p2w/+wvzl6odRjtKd3zZKd7ZsSth16kq76qq3ca7l1Wj1fLqrj3j9lzeG7K3vsa5Zus+/X2l+8F++f4XBzIO3DgYdbDlEPNQza/Wv244TD9cUovUTqvtqRPWddSn1bc3RDa0NPo1Hj7icmTnUfOjFcf0ji07Tjm+4Hh/U1FTb7OkuftE9onHLRNb7p4cc/LaqfhTbaejTp87E3bm5FnW2aZz/ueOnvc933CBeaHuotfF2lbP1sO/ef52uM2rrfaS96X6yz6XG9tHtR+/EnjlxNWQq2euca5dvB5zvf1G8o1bN8fd7LjFv/X8dt7t13cK7/TdnXOPcK/kvtb9sgfGDyp/t/99X4dXx7GHIQ9bHyU+uvuY9/jlE9mTz50LntKelj0ze1b13O350a6wrssvxr7ofCl52ddd/If2Hxte2b369c+gP1t7xvR0vpa+7n+z5K3h251/efzV0hvX++Bd/ru+9yUfDD/s+sj8ePZT6qdnfVM+kz6Xf7H/0vg16uu9/vz+fglXyh34FMDgQLOyAHizEwBaGgB02LdRxip7wQFBlP3rAAL/CSv7xQHxAqAGfr/Hd8Ovm5sA7N8O2y/Irwl71TgaAEk+AHV3HxoqkWW5uym5qLBPITzo738LezbSKgC+LO/v76vs7/+yDQYLe8dmsbIHVQgR9gxbOF8y8zPBvxFlf/pdjj/egSICD/Dj/V/bFZD3kIzPOAAAAIplWElmTU0AKgAAAAgABAEaAAUAAAABAAAAPgEbAAUAAAABAAAARgEoAAMAAAABAAIAAIdpAAQAAAABAAAATgAAAAAAAACQAAAAAQAAAJAAAAABAAOShgAHAAAAEgAAAHigAgAEAAAAAQAAAqqgAwAEAAAAAQAAASYAAAAAQVNDSUkAAABTY3JlZW5zaG90QUlExQAAAAlwSFlzAAAWJQAAFiUBSVIk8AAAAdZpVFh0WE1MOmNvbS5hZG9iZS54bXAAAAAAADx4OnhtcG1ldGEgeG1sbnM6eD0iYWRvYmU6bnM6bWV0YS8iIHg6eG1wdGs9IlhNUCBDb3JlIDYuMC4wIj4KICAgPHJkZjpSREYgeG1sbnM6cmRmPSJodHRwOi8vd3d3LnczLm9yZy8xOTk5LzAyLzIyLXJkZi1zeW50YXgtbnMjIj4KICAgICAgPHJkZjpEZXNjcmlwdGlvbiByZGY6YWJvdXQ9IiIKICAgICAgICAgICAgeG1sbnM6ZXhpZj0iaHR0cDovL25zLmFkb2JlLmNvbS9leGlmLzEuMC8iPgogICAgICAgICA8ZXhpZjpQaXhlbFlEaW1lbnNpb24+Mjk0PC9leGlmOlBpeGVsWURpbWVuc2lvbj4KICAgICAgICAgPGV4aWY6UGl4ZWxYRGltZW5zaW9uPjY4MjwvZXhpZjpQaXhlbFhEaW1lbnNpb24+CiAgICAgICAgIDxleGlmOlVzZXJDb21tZW50PlNjcmVlbnNob3Q8L2V4aWY6VXNlckNvbW1lbnQ+CiAgICAgIDwvcmRmOkRlc2NyaXB0aW9uPgogICA8L3JkZjpSREY+CjwveDp4bXBtZXRhPgpOsrRmAAAAHGlET1QAAAACAAAAAAAAAJMAAAAoAAAAkwAAAJMAAEy0MDTqowAAQABJREFUeAHsnQe4FEXWhksUFRRRFBUUwSwmQBEEFcWMCKY1ixEj5pzTmnNWzIp5zYgRBQEVwYAJE4I57C4qYl7d/s973Lp/35meud2Te+4pnstUV1fqr3qmvz51whyBJGfJEDAEDAFDwBAwBAwBQ8AQqDEE5jCiWmMrYtMxBAwBQ8AQMAQMAUPAEFAEjKjajWAIGAKGgCFgCBgChoAhUJMIGFGtyWWxSRkChoAhYAgYAoaAIWAIGFG1e8AQMAQMAUPAEDAEDAFDoCYRMKJak8tikzIEDAFDwBAwBAwBQ8AQMKJq94AhYAgYAoaAIWAIGAKGQE0iYES1JpfFJmUIGAKGgCFgCBgChoAhYETV7gFDwBAwBAwBQ8AQMAQMgZpEwIhqTS6LTcoQMAQMAUPAEDAEDAFDwIiq3QOGgCFgCBgChoAhYAgYAjWJgBHVmlwWm5QhYAgYAoaAIWAIGAKGgBFVuwcMAUPAEDAEDAFDwBAwBGoSASOqNbksNilDwBAwBAwBQ8AQMAQMASOqdg8YAoaAIWAIGAKGgCFgCNQkAkZUa3JZbFKGgCFgCBgChoAhYAgYAkZUa+Ae+OWXX9zIkSPdAgss4NZbbz0333zzuRtuuMHdcccd7qOPPnJzzDFHw99vv/3mfvjhB9eiRQu37bbbuptvvtnNNddcBV3FuHHj3KGHHuo+/vhjN++887oOHTq4OeecU8eifz/ujz/+6P75z3+6ueee251xxhlu7733Lmg8Gk2ePNkdc8wxOma7du1cx44ddRzO+fHIf/vtt+6rr75ybdu2dcOHD3c9e/akuKD09ttvu1NOOcV98cUXbskll3Tt27fXfsLjkf/Xv/6lY1Ln+uuv1/UoaEBp9Nlnn7mzzjpLr6NLly6uTZs2jcZkPNI333yj43J9Rx11lJYV+t/333/vLr/8csc9stRSS7mWLVtqV/46/Zj//ve/3XfffecGDBjg1l133UKH03Z//PGHmzRpkuvUqZNbbLHF3Pvvv++CIIhcUz+P//znP7oG3G/Fpl9//VUx9n1HfYbv5fD5uOXFztHaGwKGgCFgCBSOgBHVwrErSct3333X9e/fXwkLHa622mpul112cSeccEKs/jfZZBP39NNPx6obrvTJJ5+45ZZbzkE0kqazzz7bnXjiiUmbuQ8++MCtvPLK7s8//0zclmvkWpOmV155xfXq1UvJU5K2kDzIJuQraZowYYLr169f4jEhe59++mnS4bQ+LzpbbbVV4jEHDhzoHnvssYLGhKDyssQLAIkXpiT3ExiNGTNGX7qSTgAyvPbaa+uLD/lyJ09w45JbX5/PpG1y1S+kr1K3oT9ebH/++We3xhpruNtvv11fcgvF/+qrr3a33nqrYrTMMsu41q1bN7ywehzoe9q0aY6Xkh133NEdcsghhQ6n7e655x4VArRq1Up/A7mmfKmp8+G2aarLS/LXX3+tz5y///3v4ctInOfF96KLLnIINbrIi/k888yjfYCH/6MAYQBCCH7LeVEuJvFCzr1D/4suumijccJj8gLP/cp4/MYWk/773/+6UaNGufnnn1+v0d+jjBfO84zjb6211lLhTzFj0nb69Ol6feT9tflPykgImXj5p7zukvzIW6oiApttthlP2UZ/ImVsdJx5PnwsN2Ug5CDxFeyxxx6xxwiPR16knInHo8HGG29c8JgrrLBCQWN27dq14DGFxBU0ZpL1y8T2nHPOKWhM+eEs+DpFsp54TO65FVdcseAx/XUfffTRicemwQ477FD02H4O9tn49ycJHgsttFBB60ejnXbaqaA1lF2ngsfcYostChozCSZprLvIIosEQqwKwvWJJ54IeA4lve4NN9ywoPFodPfddwdCDBONyRyPPfbYgseUXc5AyGCiMeXFK/jHP/5R8JjXXHNNIKQ/9pjUHTFiRMHj1WpDJDCWqoiAbPdn3YTc3Em+9O+8807iK9h0000TjRGeD194kW4kHlOkqQWPKeoQicejgagXFDymbJ8XNKZIYwsec4MNNkg85u+//17weKyrqHIkHnPGjBlFjenvJ5EAJB6bBhAk34d9Fk40S4HdFVdckXgNf/rpp6LW780330w8Jm1Kcb312kehL40LLrhgwbg++eSTiddRpJqBqKEVNCbPLlEpSzzm7NmzE5NUf5/wPC8kyc5FYjLOmFyjqAcWMmTNtjGiWuWliZKELbHEEom+hKeeemriq+Bt1n+RCvks5C2xWAmc6Jomvs4ofONer2wNBrJtlGhMHsD8UMQdI7OebH8mGo/Ksi1a8HiMj1Q/aUIKmzn3Qo5FN7qgHQFeXAoZz9qUntQOGTIk6e0TvP7660Wt32WXXZZ4TKRTtv6511+2qRNjSoNiMC3k3in2966QXasHHnigqOt86qmnEmMrKnYFj3nhhRcmHq+WGxhRrfLqRElUV1pppeC5554LNt9884AfDzG00T9ITNSPAm+0SQjV559/HvlGCsESHZ5AjIkCyDJb2LmInujSBrzZxk2ii5vz7RAJpOg36l++rRW2CpOk8ePHR+IVhWGusjPPPDPJkMHDDz9c9JiPPPJIojHF2KyoMcFcjKASjQkuuTBLWi56jonGFr26ko2ddK5WP5vodOvWLdH6UZl7vBgsUV1KmpD8FjNmvbdldyPp9r/opxeFaSE7SC+++GJRYw4bNizprROIYXNRY1577bWJx0QAVeg9d8kllyQer5YbmDGV3AnVTEIy3axZsxpNQfQx1Xq6UaEcYEyAwQHW8JnpoIMOchgmxEl77bWXKqFn1l1//fXd2LFjGxXLFq9jPlFGMljj77fffo3q5zr429/+5uStNOv09ttv7+67775G5fL26YSkNyrjAGX1iRMnqoJ61smIgo022sgJ4c86c+CBB6r3Avli8qKm56+77jp3+umnZ9VlfT788EMnOlxZ56IKsN5/9dVXs04dfvjhTh6uOp4f87TTTos0ZFp99dXdlClTYinFo9wvkmo1NskcFO8KrGn4OvEswPVkpl133VUNTDLLo47xUrH00ks3GACG63Bvde7cudGYfvxnn33WvfTSS+Hqmuf+wqiQ9Y2TwE2IclZVcMAw0Y/HJ/iEj8P5Up8rdX9NzR8jETyAkKibmeKUZdYJH/u8vMCqoYY3EMkch2MMTET/M+pUZBmeQ2655ZbIc3EKMXbkPuZei5sGDx6s3lXi1m+O9e6880415o177bfddpvbc88941bPqse9JSoZbtVVV806l6vgvPPOi21sHNWHqA2pQSBeduKmI444wokUP271rHpcH9fJ9cZN/Cbfddddcas3qke7nXfeuVFZmg+MqFZ59XDRhMVkOC2//PJqIR8u8/lLL73UHXnkkf6w0SeWmyeffHKjssyDc889N6fFfq6be5999lE3WJl94a4K8rnllltmnmp0DKmAXESlxx9/PNL6E4vul19+OauJSHqVTOOxIF866aSTnGzxRFaBSGKxHE5YhUK+cMOVmfr27esgzyJdzjzV6Fh0vNzFF1/cqIwDrDFx27Tssss2OseDVoy9Ir0g8AIAeW7qh02kA062NBv1ywEWzXgQyCTYjz76qHoHyGogBbg6g2jmS5AXHkxYe2cmxmJMxo5KeAcAA6x1MxOk+oILLsgszjoGR5HgRfaBBTAvA80l4UEDgl+JxMvx4osv7nI9PPFW8tprr8VylYf3Dx7cuCnLTHjM4Lo86eeTl6333nsvs6qTbePI+zCrohSIqoFbc801Iwk9L0+8kOZLnrTnq+PPpaEuv414P8hMPHumTp0aax25TtYqam34LRSVooaXRMbhJRlXgZkJzyFRQozMehyLPr7+Tn/55ZdZp/kNYT4k5saLFWP6l7lwA9wsisQyXJQzjyCJF6JMgRIN6B+PA/5+FV1Wd/755+txZof333+/22677TKLI4/5vvE8ivqtRNCCVwWuEYHG888/n9VHrmd5VsW0FMjFWqoiAlHGPvIwzzkjIVSBuEwK5P6K/BPXVoG4nspqP3PmzGDfffeNbENfjJnLe4D4ctVt+agx2bYX8huIlC1rTBTQ5UuVc8wePXpktfEF4jIpZzuuXwiur9rok3kIycvZNp8+phClnO1QvwCHqCQP3OCAAw7I2TafysJuu+2Wsx36W6x3VGKLbv/998/ZVlz4RDXTMnCPWkusaPMZxjCmvLREtqW/OGoSbLtFjU2Z+LrNOWdOoD7C9mRUe9RU5Ec9b/t6O+l1vp9coUMweZVOwST5e3nlv/4myudLKy8ZvCh/L3T962+CfI6Xv3FdlwieX+mvv7Hyyd8Y+Xtuxb/+nl2xYzBa/p6RP4+1uGpT+PKp8MjuSMB3IV8Sl0hBLk8cuVQI7r333oZ5+Pn4T3GJlG84PYfxjLzYRvYhuy5Ntq/HCvJCGan+Ba78JvFdbyrxG+PXIfyJ5bkQyazm6GmG64XzshuYVT+qAMPPcDufR/1NXGNlNRHBQWR9VM3kpSirfmaBENCcHkZQk+N8Zho6dGjkmPKiF/jvUWab8DHYi/Q/so/M74j4zY6sJ5LxcJepz8PKLVURgYUXXjjrRmvKoCbXl89/afkSyltqwE2M0QGEpylPAug55ksiacuapx+PT3mrVNcfDz30kLoOkUACAT8e4TqZ+aYMskQCkre9+EcNROoYiEQkwEWKSFF1HpnjhI9FtSHnZfJDh5uWcP1wHlIOluLTVX9wxEdrALlFpzdcLzP/xhtv5BxTpBE5dXfpB1wlcIAaTPGjiCUoa5XrwUsb5hn1suInwRplzjF83Lt370De/hteXLAgxeUJutPheuG8BDQIxD+iHyLnJz/U+Sx2cT30zDPPNGovkowA44B893AcwtKo0zo4wGUba/D+6l2Cf665bFn+us7ZQsdAr90n8WWa8z4Q/5gBJCgqYXXv5xy+d3xeJHxRzZQ0iaQs55hYq0e9KNOZSAcDkRLmbDt69OjIMZtDYb4XelHVymk5DpHK92LOC3SuJDtlOddCJJG5mikhzDdf2UmMbItxK7+h/h4Lf2J/kW/9uU7ZPYpsSz88X6OS+DzNKdhBIDRDPKbkSgiLdt9995xjZurzG1HNhaSVlxQBiZKUdVOKyD/vGE19gcJfxjh52c5rICW5BsZYC2IYp784dfgych35Elb+uX5k4oyRWQeJclMJEgfRy2xb6HE+yaafS1yleVEDiDWv4447zncd+QnhjeNPEiMrJJVxxk1iSStbdE1eB67BBg0aFIjaRYD3hXz4I2FHet/ckidg73crH1Fdac6/7jmMZnzie5nvnuD7g1TuwQcfDER9JxA9Rn1xzuf3kmvJ93sgW5lN3gOiYx5IEAp9qRMVl4DftXzGmYVauXsc0v7JS2++3zpcwEEAIfu4IxRVpQDPCZCtXN9H8M618wRe7ITlakt59+7d1XDJv3jw8stLci4pPG14gZVAAjmXI99OGe3Z8cILhU+4++NFHYPhXHPluZ1rt4t+8gl2mC/3qkQI9EPqJ6668gln4AWZOxa5DARNotoIWjsoFoEoIib6ME12y496rm2QXF+uqHLeGPM9IMITQbKV7404qv+oMrZG4o6Jj9h8qg5R/UeVibFZ5DZN+Pp8vlRkFaly3MQDIWreSctEfznWkDx44pDVOOMjyU6SIMq5tsfijBeuw3ZaIX6E/XzZjsT1TDjx0ENCixSXT3YwsDQm8enLcQAu+s7hphXNe6n6B2Ukqiv+j6hmbuWKrnxJ7lfWkgf3mDFj8mLH70WhAQLC94vP497shRdeyDtmcziJFNNjUopP0dlsErZtttkm1phRu41RcxR907xjslOWbzfI98lviehOx3Kwn0ua6ieCVLWpHUVeEvr06aOBcKJ4gJ+X/7zpppt89w2fuYgqXgrqKdnWf5VXky+HvxH9Z1xH8zzw8+md+v5yfdKWPpIktoHXWWedrDnnGiOzPAlh9PPijT4Kp8y+cx2Lxb3vKvYn7nPybVHnGsuXx/nBzpxMXMmqHyPz8/jjj8/sMu8xOp1iCFfwWjJ+Uw+JXBPgvsu3lZd5bVHHSHtRnSgmsU259dZbN+pCvBMoJrhA4kWOTyQsJOrz/WRHYN1119WHmoSujdSPa9RpGQ68ZOvDChBV9DwzU65tx6i1ylWGykjcyGhsi6KDn6uvuOW4BIyjn5h5vfV6jI1BXOzy1Yv7O4vEMi5ZzTce55raPfJrhku7fOojTY0TPo80NE5CNaxUgUly6f9feeWVkWtnRDXOClmd2AhEGYeg8xg38cBHIpRkW54HHFs4SUmqnxNvqGz1JpF0QiqQwhSa2E5iOxH92/CPRr48+qbFOD6GsGBElW+MzHM8eJNsg2fiwQ9PnLfr8Lg4zUePtZAEWeWFJQmujI00QNzEFDJkQxvuP6TO+baRw9cZzmPIwFZksQniyUMznNBbY6wo48LM+ugf8zBCnaHSyftVntZt6bLop6L3usL/JKo86KPSVVddVdD6gS+hmL2kOqrvqDLWJJ8BYvgeicoj5UIdwVJjBIqVrCYNTcoWtljAJ/ptzVzPpowvG19hEGDIh8Q0s58kxzjhT5LYcYkymE4yZj7d3VxEtd7CqJpENcldV4a6UVGoKCsksX02YMCAyAcHen7iY1JJbdxt96bmgB4Rjoy9ZCfzywcBETdQqqPGW3QpEkZChx12WJAvMhHW0BhZ5dMhSjIXCCveAjKvL3wMcYIUox5RbAJXXiQ8EQmPE85DxJHC8gNcbEJfDX3afAZLjA254KEUNq4pdmy27pFa5tOX89cNzmzHlwJn5o1UF8PDcMKYi/GiiGpUfR6YzKvSCZ015vlR9/IR1eVb/KWjmu8eQx806QsduzKFqk3w+8XLYJR+v79Poj7Rfyx0zEqvbTXGu/HGG1UnPQq7XGU8Vwp9SYas4gUk6c4VvxNJCaPHU9wPBv369cv7Wx51rejeFir0QP816jkfNU5mWVPCneZCVM2PqtwZ1UzygHPy0G80BZE+OnxOFpqEoLkZ4qhfLKy1C5HQqr9O+bIV2mXedvLgUOfbopfj8G+H43Z8wOGrVIhN3raFnsTZuTx09DrlIerw6YoPQMaUrdlCu83bDh+AkydPdlynuPtSf6Gi+6T+GXHSL1LJvO2TngRXcdOlvvJYT65ZCLpbZZVVdEz5wc3pszTpWL6+KPg7nHgLeVRsxWpW1xDfpfihxGeuSI199ZJ+cr/KdrKTiGKKMXORh5IGNGBsgkAQOKKUOAvxdGKw4fBx6JMQVbfppps6fBzLy5bez+AP9lH1xXuFE0t49XnIfCuV+I7JC4ab3n1pN/+c8YIlJJ1b39enu2n/DdS/sBDDvM0JroEvXHwORyV+f0TNwuFjEz/JxSZ5odOgAfgu5jsZlVg/AhHge1rCRkdVsbIQAvgpxem/kLK8Pnpl18fhw5lAM/hPLibxrMOZ/vXXXx/p89T3LdJw/f7JLozDn3YxCX+9IqnUQBVCYnN2xXee4BQEbCHYTqEJXEXKqbjiCzpf4lkmKi7qoxV/w/kSQX4OPvjgrCqMJTsPWeVpLTCiWuWVw5EwTtLDSfQxI6NPhetY3hCodwR4gEA0yplE7UFfACCbPon7MXVWDgn0ie8pKaq+GFU5nI3zIlHJ1KVLFyc7DG6GENX5ykRU+whR/SgmUfXXLmo66jQech9+0RGJppJ9X69Un7zQids5fVkGD5ykiyGOYzwixYmKUqmGajb98N3je0AQB/+SLLstGqgBYYBIxNXpfCkBkV0SJXP+JVlUzBzRoxAC8KIqu4VNBl3x8xGVFHf33XfrIb8huf64P3Guj3CHyI+ijqQvx4yLkAWhEcTRt6dDny/kk/a8kPNiRSACxmdMgqRwz/ICQIQ9CHJT/VOHl2l+ezITAVkIiFEvyYhqlVfSP2zC0+CHVXTCwkWWNwQMgTIgIN4H9IERDuOLRBDpbZSkJaq+GFMpSY2KEFOGKTd06V9yy0lU1xaiOl2IqnhCKFpy1jBxyxgCZUYAggkBrfdECPLwS7a/XiOqHgn7LAkCfvsu3BlbbFGhPMN1LG8IGALFI0B4YL5rbDsiwWDrHvUOpDeENvZSDSQenKM+ah/iKkZVdgg7K3piqq6AlKmSCRUXpDMfi0S1dZkkqr2FqM4QoooaBhIfS4ZAGhBgVxKVsEsuuURDWPPS6V888+W5tnznfR9x62X2FbddU/UefvhhVfsRQ1An7hSp3igZUW0Ehx0Ui4AYImXpV6HzgwTDkiFgCJQXATHMc+KLsGEQdN/YMkT/N5zQq0RvL1yfnQ90yIgbXmmSyty8fvsnPZZ2rUQvvByplxDVj4WoQs7ZZrRkCKQBAb6bvICKmybVMU/DnJPMEaLKLlAuooqdgbjQS9JlTde1rf8qL4847XbodIUTDwQeDJYMAUOg/Ah4qYeXlmD0Ey4jTxnSVZI/h9FgNRNGkhii7DD/3Kqj2qDNKxnRypN/fP6VNK/lf52jtHGZr/dXJT0nRZfN/ElPYHAmbrj+qmT/GwI1jgC6ngh76pWoIkVly188ljiJAJe1GkZUsyCxgmIQkNjXagQQ7oMHAg8GS4aAIWAI5EIAy3nxCZrrdMnKW4o3i1li+IH6gyVDIA0IoD6HugoeDPwLZhrmHXeOnqiKL1onftSzmt16661OXP5llae1wCSqVV45LPw++OCDRrPADQf6cZYMAUPAEMiFAK7gcNHmJbz+k/o+7z+LKcPiGstrS4ZAWhBAfY5dybvuuistU040T6SouNTDXV/YtZ7vxIiqR8I+S4JA165dnYSBbNQXrjFw1WHJEDAEDAFDwBAwBJIhgOEfu5JJiCruorzKnZfCemNKRg/n/bH/DNf3Zf4zfM7nM8+hWsRzP25CispfLqt/I6pxkbR6sRCQ+MNZjpVxqM6XJs0Jn5IS7z4rmEGua+INGGfhxThylghBbtKkSbmGKEs5luDHH3+8k7jvBffPGzFW5PjTq2RCEf+AAw4oeEgCIIA5PggrmfjOSGSigrei+W4dccQRse/NUl0bKj0Sdtbhkq7QJBF53Lhx4wptXlA7HqIYkxXjMH/kyJFOoq1V/B7HewPO2gtNOGc/6aST3OzZswvtoqEdJIXt2J133rmhzDLlQQA7D3Yl4xJV6nKfSLSs8kwoRq/cF4MGDYpR0ylJzUdUb7nlFrfnnnvG6isNlWzrv8qrRJShqVOnNpoFjnxxdpzmxINp8ODBsS+BH3EJxaiRj2I3ClVkixPDtFwRakJVS54l6g3RcQpNOJGX8IWFNi+4HdGmpkyZUnB7HgJEPwH7SiZ0JVGXwZiokDRt2jR1IF6Nl8F7773X7bDDDoVMW9usttpqjheESqf999/fSVjigoeFBBB1rNKJ34QPP/yw4GHRBWR7tVQvkfzeV2P9CgYgpQ15KWRXEh3VOIngHieeeGKcqmWr07t3b/UqEmcAhBts//NbEvYB7dsaUfVI2GdJEIh68BABhIgVaU64z0Bi16tXL4evyaYS2x642ykmgVk4mlAxfcVtSzhP9IyLSRA91D9K9TCMOxdco80777xxq0fWIxJQpV+qcD1TbNhGDC3ws1jJNP/88zsf4arQcQkbWumXMSSq3OPhbctC5s89ThSpSqallxYfs/J7WkzCV22xLzW4SkIiDY6Zql7FzM3aRiOAnQdrliaiinEk4WHjJE9UCd3My29mMqKaiYgdF4UARgpvvfVWoz4gDzyQ0pw8Ud1rr71iEdU0X6vN3RAwBAyBfAhAVHnBMqKaD6XSnSP8KS/QuKeKkwgTi4pHNVMSooprKqT9O+20k7vnnnuypo1wiGdvvSTb+q/yShKP+o033mg0i3nmmUfjDjcqTNmBEdWULZhN1xAwBMqGgBHVskEb2TE7dOjOjxgxIvJ8ZmEtENU+ffq4Qw45JHNqkcdGVCNhscJyIdCjR48sPcG5557b/fbbb+UasiL9GlGtCMw2iCFgCKQAASOqlV0kDJLZlYxLVFGnOfnkkys7yYzRkhBV9FJ5xu6yyy6RBmMmUc0A1w6LQwAfha+99lqjTtB7rKb1YaPJFHhgRLVA4KyZIWAI1B0CRlQru6Tog//666/NlqjiRWbvvfeuLOhlHM22/ssIbpyue/bsqU67w3UxXvjjjz/CRanLG1FN3ZLZhA0BQ6BMCBhRLROwObqFqLIrefvtt+eo0bi4FiSqffv2dQcffHDjieU4woDqkUcecbvuumukwZgR1RzAWXFhCKy11lrulVdeadQY69pKW4A3mkAJDoyolgBE68IQMATqAgEjqpVdRlw8sitJzPs46aOPPlKf0HHqlqtOEqKKARXuHHEPGGUwhrvDffbZp1xTrXi/JlGtOOSNB8R3WpST+kr7pmw8q+KPjKgWj6H1YAgYAvWBgBHVyq4jLsnYlUwTUV1nnXXcsGHDYgHlieqQIUMi1RuMqMaC0SrFRQCXFC+//HJWdSSqxfotzOq0ggVGVCsItg1lCBgCNY2AEdXKLg8uHhH2EEo0TiIIyKmnnhqnatnqJCGqd999tyOozu677x6p3mBEtWzL1Dw7Rtz/0ksvZV08jrFbtGiRVZ6WAiOqaVkpm6chYAiUGwF8ehKkgh20559/vtzDNfv+cfGIoAfH93FS2ogqUQEfe+yxnET1hhtucEOHDo1z6amoY1v/VV4m3qJefPHFrFmwbYFRVVqTEdW0rpzN2xAwBMqBwPjx413Hjh0dEeEslRcBXDwi6Kl3orrHHntEqjcYUS3v/dXsel9vvfXchAkTsq77999/dy1btswqT0uBEdW0rJTN0xAwBAyB+kKAZyduHuOE7+bKEQxdeOGFjtDKYfsQ8v44nKdN+Dgz789nfvq+fLk/Zq5s4yO4ipMIDTtq1Ci35557Rqo3GFGNg6LViY1Av379HG/amQnXGrwVpjUZUU3rytm8DQFDwBBINwIQP56fuGmqx4Sl/+OPP56TqF5//fVu3333rZtLt63/Ki/l+uuv78aNG5c1C6JqoBCe1mRENa0rZ/M2BAwBQyDdCKA2h55qvRPVvfbaK1K9wYhquu/fmpt9//793dixY7PmRZziVq1aZZWnpcCIalpWyuZpCBgChkB9IYB+Ks9PrN/rMREa9oknntDoU1HqDcOHD3f77bdf3Vy6SVSrvJQbbrihGzNmTNYssBLFaXFakxHVtK6czdsQMAQMgXQjgMU/z090NesxEXHrySefVKf+UVJjI6r1uOpVvKaNN97YPfvss1kzmD17tiMMXFoT4d223nprfeOL+iKl9bps3oaAIWAIGAK1jYARVZOo1vYdmrLZbbLJJm706NFZs/7hhx9cmzZtssrTUjBz5kwlqueee65bd9110zJtm6chYAgYAoZAyhGAqCLoQVezHpOXqOIrNUq94brrrnP7779/3Vy6bf1XeSk322wz9/TTT2fN4vvvv3dt27bNKrcCQ8AQMAQMAUPAEIhGAJdP6Kgi6GELvB4ToWGfeuopteyPUm8wolqPq17Fa9p88831hsucwnfffecWXHDBzGI7NgQMAUPAEDAEDIEcCBB+3AfL8buSSFhJUZ++zJ/3x3z6fNQ5X9bUZ74+8p3L7Ddc99133+W0GkxFSY2NqCo89l+pEBgwYIAqRWf2x9Z5u3btMovt2BAwBAwBQ8AQMATyIDBo0KAGAZB3xh/+zNM0NacIanDssce6s88+O2vO1157rTvggAOyytNaYFv/VV65gQMHquPezGkQIWPhhRfOLLZjQ8AQMAQMAUPAECgRApkENnzs8wzl8+HPapYvtNBCGp0KX6qZyYhqJiJ2XBQCW265pd5smZ3885//dO3bt88stmNDwBAwBAwBQ8AQMAQcuqqEUc1M11xzjTvwwAMzi1N7bBLVKi/d4MGD3ciRI7Nm8c0337hFF100q9wKDAFDwBAwBAwBQ8AQMKJq90BFENhqq63co48+mjXW119/7RZbbLGsciswBAwBQ8AQMAQMAUPAiKrdAxVBYJtttnFEccpMX375pevQoUNmsR0bAoaAIWAIpBCBN954Q10OdunSJYWztynXIgL4U91jjz2ypnb11Ve7gw46KKs8rQW29V/lldt2223dQw89lDWLL774wnXs2DGr3AoMAUPAEDAE0oXATz/95JZcckm36qqruvHjx6dr8jbbmkXAiGrNLk19TWy77bZzDz74YNZFffbZZ/rDlnXCCgwBQ8AQMARShQDGsahyrbjiiu69995L1dzrbbIE2Pnxxx8dQqK0pxEjRrjdd9896zJMopoFiRUUg8D222/v7r///qwuPv30U9epU6esciswBAwBQ8AQSBcCRlRrZ73wL4qxctROZu3MMt5MchHVq666yg0bNixeJymoZVv/JVgkwp1yw7C9kzTddddd7q233spq1r9/f9eqVaus8lotmGuuudxJJ53kevXqVatTtHkZAoaAIVAVBIyoVgX2yEEhqqxH5k7mL7/84iZMmOB+/vln17dv3wb3kH/88YeWf/7552755Zd3vXv31n6JgDV69GjXs2dPDYO+1lprudatW7uvvvrKLbXUUm7cuHFumWWWcd27d4+cRykKjaiWAsVm0sfxxx/vzj///GZytbkvc7fddlPCnruGnTEEDAFDoPkhYES1dtZ8//33dwTUeeCBBxomxfr069fPEXL1999/d+xojhkzRknmRhttpMQW0vnMM884nvennnqqmzVrloY5Z+dz7rnnVn+miy++uDvllFO0X3SSX331VXfjjTe6vffeu2GsUmbuuOMON2TIkKwuTaKaBYkVHHrooe7KK69UaSJkrdBEP6RNN900VcSXLy+h3HbccUd3zz33FHr51s4QMAQMgbpEwIhq7Szrfvvt57799ttGKnfHHHOMmzhxokpB55hjDn0Go1OMxHL69OkqGeUKEEjdfffdbsqUKQ1ElS12iCHphhtucEcccYR79tlnVfKK0/13333XjR07Vs+X+r9cRBU+cvDBB5d6uOr1J+HALBWJwCGHHBLICgZyUxfV0+abb679yA1WVD+VbizK6TpvIaqVHtrGMwQMAUOg5hEQnUj9jRRjqpqfa71PcOjQocHf/va3Rpe54YYbBuJlJ1hvvfUCkawGIhnVTypNmzYtEEGMtpFt/EC2/7Xtd999p2v69ttvN/Q1fPjwYOWVV244FsIYrL766g3Hpc7AOeAemX+MW0+J+LWWikTAiGo2UZ05c2aw5pprBmIoViS61twQMAQMgXQjYES1dtZvn332CcSIudGENttss2DnnXcOxF4kePPNN/VPXEQGop8aiD/zQCzrA1EFCE4++eRghRVW0LYilVWC+M477zT0BVFdZZVVGo7F+r6sRFUkqlkkFdJ6xRVXNMyhHjJGVEuwikZUs4mqWFTqF2ivvfYqAcLWhSFgCBgC6UXAiGrtrJ3oiwZbbrllIEF1AjF8CkRfNTj99NMDMYAKxC2kTpTyDz74IJAIkfoce+yxx4Lffvst2GmnnQIvFUcYAymcOnVqw8Vdd911gfjKbTgWlYCgW7duDcelzhhRLTWiddyfEVUjqnV8e9ulGQKGQJEIGFEtEsASNhdbkEZSyCWWWCKYPXt2IOHMgznnnDNo3759INb7wS233KKjit1J0KJFi2CBBRYI1llnnWCllVbSck9U33///YbZQVTDW/1IVHv06NFwvtQZI6qlRrSO+zOiakS1jm9vuzRDwBAoEgEjqkUCWOLm4loq+PPPP3Vrn+19n8TFZCAW/4FY/vsi/YSUSpCAgHbixqrhXDhPIeeRvPpE35l1/LlSfN55552NSLfXVb388stL0X3N9GFb/yVYCiOqRlRLcBtZF4aAIVCnCBhRrdOFrfJlGVGt8gKkaXgjqkZU03S/2lwNAUOgsggYUa0s3s1lNAkYZBLV5rLYxV6nEVUjqsXeQ9beEDAE6hcBI6r1u7bVvLJcRPWyyy6r5rRKPnbVQ6i+8cYb7sILL3SioOx++OEHJ1Z3Ttw7qDNdcQ/hxCeZ5sVCz3Xt2tWJ7zKN00t9nPb+61//cmKFp5EmOEeIM8roa9lll9W6hDYlqoT8WGiYU/Jized+/fVX16VLF0ff//nPf1znzp0dY4ruioZAYy44/yXCBJEqRNHaieK1++STT1zLli2d+F0TlRDnxCLQvfzyy+62225z4sZCywr5b8CAAe7JJ59UR7047E1LwuE/QQrCDv8ffvhht8022zix+nc333xzWi7F5mkIGAKGQMkRMIf/JYfUOhQECD6wyy67ZGEhRNUddthhWeWpLSg59U3YIa4eBLy6+JOIFAmvvnH1enL4b+6pGq+tHRkChkDzRcAkqs1z7THKIjBAuZIQ1UjudOmll5ZryKr0W3VjKpFuKtC9evUK+vbtq/l99903WGuttTQvIcga5XH1ALHFxQT+ysgfeeSR6jKCPBEklltuOS0/8cQTA5GYav60004LRGLakMclBfX//ve/BxIqTfPnnXde0K5dO81fdNFF6o6COojRcVdBHr9oEtdX3Vhcc801AX8iXdVzBxxwQFGLaES1KPissSFgCBgCNYmAEdXaWBYs+s8991zlDBgiyU5q7IlJWNQANb8kSXYTGwIEJGkXt25zIapV3/pna59YuAcddJATP2VOyKITX2ROfJM5eSvQbWOJFOEQZYtfMzdp0iR37bXXqshbQndq2YMPPqhxe0Vfw40aNUrbPPDAA2706NFO3DS4kSNHuvHjx2vfnJ8wYYITB796fvLkyU6Irp6XqBROnAE7ysTZr5Mwa46x2epna5s5oTLQp08fN2PGDFVDWHDBBZ2QZsdWvRBVnZsQ2oKS3/pHxeGMM84oqI9qNGLrnxjHtvVfDfRtTEPAEKh1BGzrv/orxLMbtcI11ljDiZDLPfroo04ETU6iUsWaHOpsEmnRie9S5QFwAolW5RZeeOGc7VF7O//885U75KxUxIl77rnHSUStrB7gTocffnhWeWoL4jL3ctXzElLRswguueQSlUyeeeaZwTnnnKN5pJw+LwseIBkVsAP8hB133HGax8muLIrmcdKLFJY6KBoThYK8ENeAKEnkhdgGjEdeiGuw3XbbaZ43poEDB2peyGyw8cYba16Iq8YApj7h1ZD+kveOfr0xVakkqvSdxr8hQ4Y03Ca29d8AhWUMAUOgmSNgEtXq3wD33ntvMNdcczX4SMXHKRLV1157reFZzizF3kSjVvkZv/TSSwF+VIlW9eKLLwZi2xJ4R/uECH/99dd91YC6Qh6DDz/8UMtuvPFGjWQldjPKQcJ1GxoVkWGsKK4Al6qnVHWJKtLJiRMnui222EKVgiUKhBoTde/e3Q0dOlSlnUhdyR911FFqFDVs2DB30kknOdmm1zIhtk5uQCdb/fr28vPPP6tEEiksb1FIaZHCfvzxx3oeie17771XsJSWfjGgQkq77rrrllyiKjeek1BtbvHFFyebijTPPPM4UdlQAzYmbMZUqVg2m6QhYAhUAAGTqFYA5CaGeOWVV5yoFLrjjz9ed1R5ZpFEsKUSz+eee04NrOEVe+65p0pbWbcOHTooR8Hw++KLL3bsIA4ePNgJ6VTprESi0p1dntlIXHv37q3nkLayS4tRE7vFGGW/+uqrTsir7tw2Md1Yp4V8K1fIrCxE1YnNTGZxeo+rzbrXX399fSNAP/Wpp57SvGwhByKW1zzhyx555BHNi0V9cN9992l+v/32C26//XbNI9GUrWfNH3300apHKisSCJltkNLKVnqA3inl6KWeffbZmr/ggguCU089VfNXXHGF6rhSZ/jw4YHcYFp+6623BkhLKUcnJCylBb9ySFSFvFd7aYoa3ySqRcFnjQ0BQ6COEDCJam0spngYCuadd95AhEBqX8KsHn/8cZW0fv/994GQUH3OY89CYocWexYiTl1//fWBqOVp+bRp07SeCML0eNy4cXr8wgsv6DESVdacNvPNN1/gn+fwCDhPqVJzkahW3ZhK9Dx0gUVqqiJ0yGD//v11YcmL/oiK08ljbDR27Fitv/XWWwfiyknzENsoMotRlhfRH3zwwU0S25NPPrlJMovKgbyR6bioHJDKQVTZQkhzMqKa5tWzuRsChkApETCiWko0i+tLXFAGYhOjz3Cs49nKb9OmjQrBEHShFiiuKIN33nlH1QJlB1cHRHgFTyFBROEkrCtJbFSC9u3baz78X7iNrycS2HCVovKoMzCPzD+R/BbVb601rjpRHTRokIIs4vWAGwjAReE5mD59uubRYf3oo480L0rQwdSpUzWPBBbdEupDbCF25MNkdquttgrE4ErLd9hhhyaJbVIpLbq0pHIQVf9mVms3TNz5GFGNi5TVMwQMgXpHwIhq7a2wbN8HonKoExPD6WCPPfYIVlttNd3NXWeddYKzzjpLCSy2KyRIJ9yEJMbWyis8Ub366quDpZZaSs+F/wu3oZx6RlTDCMXLV52oekMm3D/hcwyyyZvJjz/+qHnE7uK8X/OdOnUKUEqmDi6oxCG/5rl5vCgeMsubEHUgs1OmTNH8BhtsEIh+iOYhtihFU0cs7QPRJdE8UtonnnhC80hpRc9S86gc+DcXyGxYSgvM5SCqGHOlORlRTfPq2dwNAUOglAgYUS0lmoX1hasoDKmRoIrXngDXmN73Oc/0Vq1aqevJ2bNnqwE3nEQs+htcWLGDiktMkuceqArAT8QbkXIFjKsw0kJlAO4RbkM73Ft269aNbEmSV4WEy4T/UHOsp1R1osqbjAeYG0jcPQUtWrQIJDqU+i7FZymJmwjdEnRFEMu3bds2+O2337TtoosumpPMStQprYPI3t9c3Gye2K655poNxJa3KE9mN9xww5xkNiylZW7lIKpiqEXXqU1GVFO7dDZxQ8AQKDECRlRLDGgB3aHPCfH0fAMhFXqpJIlyqSSV5z5JDKe0Hp6CfIJ0emkoPARdU4lcGfTr10+roBKIVwH4CyQYqWu4DZWQqLJLXKpkRLVUSDbRT5io4ox3hRVW0BtErO0anPUT2QGxOjfYrFmzGhz0Q1QhrBBXiG0mmRVLO5XScjMtssgiTRJbCb/aJJlFSouLCeaClJZUDqKKlJdrSssfX9xwMqIaRsPyhoAh0JwRMKJaG6vP8/Tzzz8PkJpmJgRl4QAA1Akf84yDc/jEMS6raOfTL7/8ov3748w2SFupU6pkRLVUSDbRT5ioIs1EqgkJfPvttxv5K+3Zs6eWIwn1EamQkEIuqQ+xzUVmF1poIX3L4SYJE1sktPxx88aV0jKe16X1itXlIKpcU5r+eItEH8cnI6oeCfs0BAyB5o6AEdXmfgeU5/r/8Y9/RPIEvBvUU6q6H9Xtt99efY8JKXOiH+rEnYMTkqMRH0TPQiNN4a9UnP7redEtdWKd7/B5JsZU6nOVMtFLdaJLqn7KhMw60Td1QnadkFknjvsbokrh95TzouuqPtA4LzomTnReHT7T5I3JiY6s++mnn5y8TTnRU2FqeixqCG7++efXtvhgIyIF/ZQ6MhXjiT4uH6lIYEiyyFSpWC6bpCFgCFQYAZ4tEqrbrbjiiurDu8LD23B1igB+W+FQmUmIqhMPBpnF6T2uNusOS1Rvu+22YP/999c3BIyXfCQpokphkScoq4GTONbVPO6pMICifIxslaNzQh5DKXRNyCOlXW+99TRPVCm27inH4Ar9VPJhKS3bAhhqUY7hFgZc5FGYRheWPOL/sJS21BJVXGmlKXmdXQzQfDKJqkfCPg0BQ6C5I8COH8+OlVZaqblDYddfQgSai0S1poypsFTDlylfaPyS+RCpElUqOOaYY7Qcx/6eGOLwHyt86kNsc5FZ71lg9OjRkcQW11Z4AqAfXF7FIbPyZqz1cfjr51OqEKpGVEv4TbauDAFDwBCoAQQQsPBcs2QIlAoBvAzAWzL/CGRUT6mmiOqxxx4bEB0K0IkWhdNa8vgrBXjyRJQishR5zhN9ijxuH3DWSz6TzEqINC0nqhRBAKiDEjJup8gTLABpIHmiY+F/lTzBBfDLSj6TzHoprYRIM6L6P1+1JlGtp58GuxZDwBAwBAyBWkbAiGqFVie89S/xdQMfEgzp5IgRI5QkImEkjCmEkbCmGO2QR+JKpCjyENsoMouU9rTTTtM61G2K2DJmU2QWlQMvpcUZsElU/wqqYES1Ql8aG8YQMAQMAUOg2SNgRLVCt0CYqA4cODCA+EE8t912W5VukieqFPF4yRPeDKe95NFhRUpKHmKbi8wibaUOJDWK2IqhlkptqRNHSguZZTzqM74RVSOqFfq62DCGgCFgCBgChoAigP0OPCTz7/zzz68rhGpq63+ttdYK2EoHdLbWw/5KJ0+erOViwR8QtYk6W265ZYDeKXkknKNGjdJ8Jpn1vsaQlN51111aB3UAokfQ9vDDD1fHvORx2nvZZZdpOZJYFpzyTDKLBJdyiK8RVSOqdfWrYBdjCBgChoAhUPMIGFGt0BKFJaqdO3cOwv7mwv5KP/nkEyWGRIbwcXZ79eoVYMkPYYTYRpFZpLTomlIH3dOmiO3ee+/dJJlF5SAspTWiakS1Ql8XG8YQMAQMAUPAEFAE/O4y/Cb8d95559UVQjUjUSX0GLF1ccqP83jcP/3+++8KPlGliObAQnTo0CEgUhX5Ll26BFjdk8cKPxeZnTp1qtbp06dPJLHdZJNNAkKW0k8cKS1kNiylNaJqRLWufhXsYgwBQ8AQMARqHgEjqhVaIi9RhYxCFH/88UcNd0rYU4jqggsu2BBVSpztBy1btgwISybO9xuILXUhtj///LP2sfjiizcis//+97+1fNlll9WQZ57Yfvzxx1rerVu34P3339c8Ulof5xcp7aRJk7QclYMwmQ1LaY2oZhPVl19+WXHDQ4MlQ8AQMAQMAUPAECgtAkZUS4tnzt48UfVO9qdPnx4QmhQy+eWXXwYrrLCC5pGcLrPMMpqfOXNmsMQSS2heIkgFEiEqgKwSlxcyi3Q2TGbJU9amTRuV2FK3Xbt2DcQ2LKVdeumlG8gszplzkdmwlNaIajZRZcEh+eHYyDlvAjthCBgChoAhYAgYAokQ8IF14Evhv3PPPTdRP7VeuWa2/nv27KlAI4lbf/31NT9lypRAQp5qHl3UtddeW/Pvvfde0L17d83PmDEj6Nq1q+YhtrnILFJWFhIVgkxii5SWxOd8882nhLcpMhuW0hpRjSaqtX7z2/wMAUPAEDAEDIG0ImBEtUIr5yWqbK1DJEeOHBlI7FrNE5oTN1WU47Zq0KBBmh83blyw6aabah5i269fP81DbHv37q35d999txGZXW211bT8008/1TB29AmxRYJK/ttvvw06duyoeaS0SFy9lBby6lUOPJlFSjvnnHMGCyywgFn9Rzj8r9DtY8MYAoaAIWAIJERg9uzZAWFdCROO0IVdSp6B2H98//33waxZszRsOPVQx+OZiGodgp5ff/1Vd8pQzWMXE7uSP//8U3cxE07DqheJQHMhqnOAkxC1qiUhpU6c1johrPp50003uVdffdVdc8017s4773SiF+quu+46J/5KnVjsO85TXxZIzz/22GNO/Kdq2TPPPOMkspUTsuuEzLqzzjrLCdl1QmbdiSee6ITsuldeecUdeeSRel50UZ2EYNXzIqV14rDeUSbb/U4iUjnKvvrqKychVZ1Ibp18kd2qq67qhOA6+eI6kd468VLgDjroIJ2v+FZ1Eu61YCwHDBjgJJiAtt9tt90K7qfSDcEdHMBPAjZUengbzxAwBAwBQyAmAjwTBw8e7EQtK2aLwqqJoEcb8pnvT2xEnLicdCL4KWygZtxKomq6rbfeOgsBcafpTjjhhKzy1BYUSeiLbu4lqkOHDlVpJm4VTj/9dM1feumlGnFKwFV/pQK8lgsZDI444gjN33zzzYEQRc0LsQ322WcfzROxQcie5oXMBjvvvLPmCRzgxxSC1SClxVAK63/GQrfSS2kxrPJS2rDKAbqrXkpLRC3aEQSgmOTDtdJXGv+IGmbJEDAEDAFDoHYRIFqjf74stdRSQadOnfRvySWXVNsP7D/YXeQP+w3U5vhbbLHFgkUXXVT/2rdvr0bPGEGjSscOJH8YNWMAzV/btm11x5FdR/6wEeEPOxJ2Kfnz8+B5aik5Ag8//HADhh5LPvH7Xk+pZiSqxxxzjLvwwgtV2imGVSql5I1AvjROQqg6iSrl5EvhhKC6M844w4nVv74xCLF1shXhhNw6IbZOtjOcKBKrhHPatGnukksucUJmVVIqzvlV+ipEtEFi+9xzz6mUVhznOrGgiy2lpQ/mh5QWSeK9997rSilRPeWUU9wGG2wg91w60jzzzOPE/ZcT12LpmLDN0hAwBAyBZoiAEFXH81YiPkZK4yoJCc9QcSupf0KaKzl0XYyVS6J69tln6y5yXVykXETNEFW26U8++WTHlrc45neoBIiU1Ykuqn6hJKqUEyMrPT9s2DDXo0cPPX/UUUfpFjxlbO9DZtnazySzokOjZPeCCy7QbXvOSwQqJ94EHGSXLXtxUaVlErHKQUQpk0hWqnIA2c0ks6gmoJIgurOqblBKosoWOgTYkiFgCBgChoAhUCoEPFHl+cKztprJE1WxHXEi2a3mVFI59qOPPhq5hkZUS7ycXkdVIj2p5HSzzTZTwgkpRY8G0olkkS8UZNQTVwgt54cMGaKfnthSl3PUXWONNZyoAjjIrLiacpDdo48+2okBlZ4PE9szzzzTiQsrHVvCpjpRHFeym0lmJSqWSm4hs2K85ZDSiiGYktlSElUIsqgrlBht684QMAQMAUOgOSPAzuWxxx6rgpBqE1UJWe4gqZ999pkT1YPmvCwFXbsR1YJgS97IE1Wkk7vuuqtKSiFp4nLKiTsq3ZZfZZVVdFsZCae4pVLiihSU85nEFjUByCz97r777irthMxirMWX0pdlElva0TdS3DhSWsisWDuqlBZjqxdffLGkW//gscsuuyQH1FoYAoaAIWAI1BQCoi+ozyDxEe4kCEpV58auooQBdzvttJMKeao5GeYBSf38889Vza+ac0nj2BiOI7DLTOxQoy5ZL6lmtv6x3pfwpXqzYnnPFr5EknITJ050oriteSz50Vnly84CcR6p6R133KFl6EjiLQC1ACSrYTJ72mmnqfU+1vy8xXEe4orFPmQXfR2IsiezzIUypLBiWKWS20wyK2Fb1WsA473++uslJaojRoxQyXC93Gh2HYaAIWAINFcEsJ0QYyTHMwNvMtVMCFl4BrJjh9paNZMnql988YUT461qTiWVYxtRrdCyeYkqRkl8aZBSYhyFsVSrVq2c+HNz4rvUtW7d2omvN4fRDiRWIlg5sSDU7QK24D2xDZNZyC8upCCz9913n8NIKxex7d+/v8OlA2Q3H5n1KgdIZsXHqyqjo1bAj08pt/5vv/12JccVWgYbxhAwBAwBQ6BMCNQSUUWAg25oLRBVVBCQpuLyUTwMlAn9+u3WiGqF1jZMVNEnFTcVThwOq04phk7iYNh16dJF/XSS560L8iqOhp24uXDieF/reGILmSUPcaUv6qD7IiFPnbjIyElsUS9A3yOulBYye+qpp6qUFmtF9GxKSVQPPPBANR6r0DIUPQz6veLeSzEuujPrwBAwBAyBOkKglogqXnGwz0C1jJ3Daia8DyBNxV+5uMCq5lRSOTbCuCipOOolGKfXS6qZrX8IK5b2uKrAIn/48OH6loX12tVXX92Qx3iJLz3bF7wZSiQNdUHF1r5E0VCH/2wnIJXFQOvwww8nTKy78sor3aGHHqp5ggJgbAWhvfjii9WIC0LL4uL+SnzAqX4HXyIILzqrvIHyRUJVAIKKhSJqAeRxZswYpSSqabzBwA53YJYMAUPAEDAE/h+BWiKq7Byiv4iq28CBA/9/klXIGVEtDnQjqsXhF7s1xktEm6qHdMghhyhRLvRawpGpIH1pSUSmevvtt0mrvFAAAAx0SURBVC0yVVoWzOZpCBgCFUWglogqwh+kbbVAVPHCw7Y/u6fo8FpKhkAuoooXI3yx10uqukQViz+ModBNZcufGxadTySlfLlRPg/n2donlOnyyy/vJEaxtkH3VGIWux9++EG37gnniXsp3FDRH9JV1AfCeb4cqA907txZtx5QIUBKynyQkKIuwHY+W9qoGyDpRQKLHg3hVNGZ5YtFnrCsb731lsNllUSpKvje8EQVoy0kwGlJEFU8LVgI1bSsmM3TEDAEKomAEdVotD1R5ZktUa+iK1lpTgRGjRoVqb5hRDUnZM33BCoFEMtiLfXrjajiYgsjNbPmbL7fDbtyQ8AQcCp0qRWrf1wXIW3DMHiLLbao6vKgVod+KkQe7z6WkiFgRDUZXs26thHVbInq888/ry7ADjvsMI321axvELt4Q8AQaNYI1JJEFVsMbCvwL45wpJqJgD7sdLIjij2IpWQIPP7445F6xtj5sMb1kqq+9V8PQBpRzSaqDz/8sNtmm23cXnvt5Qg/a8kQMAQMgeaKQC0RVbaFMT6uJaKKGt/CCy/cXG+Pgq/biGrB0DW/hkZUjag2v7vertgQMATiIlBLRBVp2+mnn65RGnGzWM3kJarYnrRr166aU0nl2EZUU7ls1Zm0EVUjqtW582xUQ8AQSAMCtURUIamQ1T322EOjMlYTP7zbYEiFgfRCCy1UzamkcuwnnngiUs+YNUZqXi/Jtv5LsJJGVI2oluA2si4MAUOgThGoJaIKgWH7vxaIKn7OwQbPPvgvt5QMASOqyfBq1rWNqBpRbdZfALt4Q8AQyItALRFVjGwwqMKVIm4Fq5mMqBaHvhHV4vBrVq2NqBpRbVY3vF2sIWAIJEKglogqrqlwUVULRBWvMFj840O9bdu2iTC1ys49+eSTkZ4bkJqz/V8vybb+S7CSRlSNqJbgNrIuDAFDoE4RMKIavbA8O7H4nzVrlltggQWiK9VRKQGFcN1IVDACC2Wme+65R43K4kq6jahmImjHOREwompENefNYScMAUOg2SNQS0SV8KmEUcV14CabbFLVtfFElaiSbdq0qehcrrnmGrfzzjtHGnG98847Kq0kIEEp09SpU13Pnj3dqquu6i6//HLXp08f7Z7olkiXJ06c6CCr22+/faxhcxFV1DswmKuXZBLVEqykEVUjqiW4jawLQ8AQqFMEaomonnTSSe6cc85xe++9t9t4442rivghhxzicE01e/ZsN//881d0Lr169XLTp09Xfd399tvPzTnnnDoXts2vu+46JYt33313yef0+eefuxNPPNERuRGiTJj222+/3eEq7Pzzz3errbZa7DGfeuopbZfZwIhqJiJ27DxRBQpu/kLTpEmTGprOM888Dflaz/z22286xZ122sn5L7Y5/K/1VbP5GQKGQKUQqCWiCkk699xza4KoHnzwweqa6scff3TzzTdfpZZDx/n999/dVVddpUS1U6dOGqCGUOh4H0DizPMsanu+VJO88MIL3bHHHqvd8eJwwgknJO7aiGpiyJpvg1tvvVW3UUqJQKtWrRx/aUkQ64suusjtsssuOmUjqmlZOZunIWAIlBuBWiKqEKLzzjvP7bPPPm6jjTYq96Xn7d8T1Z9++sm1bt06b91ynXzzzTfdOuus4yDLa6+9tnvuuefK+uz98MMP3THHHOMeeeQRldpy3SNGjHA77rijSrq7dOkS+1KffvrpSF+4GMzhgqxekm39l2glsVz0ksUkXeJegm2HzMQPyXHHHZdZnJpjI6qpWSqbqCFgCJQZgVoiqscff7xuMQ8dOtRtuOGGZb7y/N17ovrzzz+XlRxGzQJyjFSTv86dO7vtttvOXX311W6JJZbQsnJE7Xr77bfdGmusoTqql112mevXr59Ojd1UdmanTJni7r//frfllltGTTmrzIhqFiRWUA4EPKHL7JutGX5Q0pr8daGwf/PNN6f1MmzehoAhYAgUjUAtEVUEIBdccIGrBaI6bNgwdfZfDaLarVs3hxU+bpwOOugg1RXFAwHGZjfccINKnK+//vqi1z7cwccff+zGjBmjwRZatGgRPuWCIFDJavv27SNdTjWq/L8DI6pRqFhZyRF49NFH3VZbbZXVLzoy6BKlNRlRTevK2bwNAUOg1AjUElFFLxIpYi0QVQgiPlR/+eUXN++885Ya9rz9IdEcMmSIW3jhhbPqIdlkt7MQvdGsziIKkKAi0UXlYO6559YalEGMN9tss9hW/88885chc+YQkG2COtRLsq3/Kq/kyJEj3eDBg7NmgUNmrDPTmoyopnXlbN6GgCFQagRqkajuu+++rn///qW+1ET9eaL666+/ukobELPTt8UWW7jFF1880ZyLrYy3hVtuuUW7QQ0AN1VE6Hr11Vdd9+7dHW6zvNuqpsYyotoUQna+JAiMGjUqUh8FRWgUotOajKimdeVs3oaAIVBqBGqJqGLIg+ErthEbbLBBqS81UX8HHnigOvvHvsNLFhN1UETlZZZZxt12221uvfXWK6KXZE2/+eYb16FDB3fHHXfouFtvvbV77bXX3A477KCqfj169EjUYS6iipALYVe9JJOoVnklH3/8cTdw4MCsWeCsF19oaU1GVNO6cjZvQ8AQKDUCtURUjz76aHfxxRfrlrcnqrhhCrtiCh/78nyf/hy4hdv641yfN910E6ccrqJatmyp+Ur9Vw2iCinlef/VV1/pZaKC8eCDD7qXXnqpoMsePXp0ZNAGI6oFwWmNciGAHgzbD5kJBW8cD6c1GVGt/ZXDLQuqJzNmzNCHFo6mcZFS6QdG7SNlMzQEikOglogqHmXKpXtZCEr83rD1n2lcVEhfSdpAVNGPzSXJ7d27t7qQStJnU3XZ3kcHFf1YEpGl+P1FsuwTLrKWW245f5j304hqXniqe5Lt8jfeeEN9kYUfqhMmTHAoJO+5554aL5dZfvLJJw6DJSJgXHHFFfqFyJw9b5XFOOrP7C/Jcb067DWimuQuqHxdJCpY/+LoeqWVVtIfbL5TuGnBjyDbU5YMAUOgNAjUElHFXyhSPLbbsTTnj+TzUcdRZZltCq2z7rrrVsWfK0QVYyp+/6ISuqul1uGdNm2a9vnf//43akgtY8sebzlxUi6iiiE2Btl1k+TmSlX6888/A/FzxjcrEDLUaO6yuFouN19DuZDaoF27dnosOjnB7rvvHvTt2zcQZ/qa55g61UpCVHXOXE/4T/RTqzWlkoz70EMP6fWwJpZqC4H33nsvkBe8QN7qA/nBbJicbEcFosQfSNCGhjLLGAKGQPEIiG6i/h6uuOKKxXdmPZQEgaWXXjoYN25cSfqqVidCVBvxBs8hhKhWa0plGZe3qFQl8RsWtG3bNhA9j2DbbbdtNHdIkYjMA9GRCSZPnqznwkTVVxaLu0AkRv6wqp+iDB15o4mOSVXnVezgRlTjI8iPpaiABOKiJX6jImqKXpgS0qguJk6cGCyyyCJRp6zMEDAECkRAXBEFbdq0CQYMGFBgD9as1AiIJDd45ZVXSt1tRftrLkQ1dcZUiOrZ7h80aJDG4kUpWSSm8iLhNHYx59D5QOdFCIDDWIk2M2fO1Dr8d6uEPEU0/uWXXzaUVSvz7LPPuo033jhr+LSL7m3rP2tJcxagUI/y+1xzzeXWX399R0QU/kT6krNNMSfwscf34dprr83qhm1BeaC6H374QT+zKliBIWAIFITABx984BZaaCGHQ3dLhkApEEBNKyoMLjrI55xzTimGqIk+UkVUeYiiNwIJwqUEefQw8MVGwj8ZRJWwbLh5uPfeezUsWy0TVaJURIWxS/uNZkQ12fcb58/jx49X/VBeXnA4jb4ohFWkMPpilqzH3LWJeIY+6q677ppV6Y8//lD9KCK0RDnCzmpgBYaAIWAIGAIlQQAvCBi1xrWZaS5ENVVb/yIJDVq3bh288MILAVuU8iYRiGVeg6idrX/0UEnizDhYdtllA7agvY6qr1hLW/9CVCO3/sXQxU83lZ+29V/csonEMxCler3f5Rcw+OKLL4rrMNRaHEwHHTt2zPmH7pa8FIZaWNYQMAQMgeaDACoBw4cPr/gFi2AiEIf/sccVoUYkfxBhROw+0lAxVURVJI+qW7r66qsH/HXt2lUX6f3331esw0T166+/Vp0gFr6WierYsWMjbzQJc5eG+yfnHI2o5oQm5wnu2TvvvDMQrxUNBoPc44cddlggFro529kJQ8AQMAQMgdIhgB6/WPyXrsOYPSUlqiJRjeQP9UZU/w8AAP//ScgvLAAAQABJREFU7Z0J3F3D+cfHUsQeiX2pNcS+RSNCSQW1xlJBUUsQaoul9qolakkUIWgjqpZqaUstqSXWoFrVlNqKKpJaYlekivN/vvP+595zz51z71nvve+bZz6f973nzJkzy2/mzPzmmWeeMUE3ca+99low++yzBw8++GAlx19++WWw5JJLBqeccor123///YODDz648vycc84JjDHBIossUvHj4uqrr7bv1Xi26eahhx6yeSSf4b/jjjuuTTkqJtnf/e53tjzUibrGCNx0003BOuusE8w222xB3759gz322CO46qqrgtdff73xixmfjhs3Lrjwwgsrb998883BZ599Zu/5pvr16xd8+OGHled6oQgoAorArIQA/e8WW2xReJHfe++94Nprr439W3vttYPx48cnTve+++6r4Q2OQ5x44omJ4+gOAWcjk1K4jncXXXSRkcHVvPrqq0YG9Ep+hdCZO+64wzz33HNmxIgR5mtf+5q5/PLL7fOZM2eaDTfc0Miga2TQr7zzi1/8wgi5rfGrPGzxxZQpU8ymm25al+qxxx5rxowZU+ffXTxuueUWs/POOxshqmbixIndJdttyedPfvITc/LJJxva62677Wa+9a1vmc0339ysttpqpeRHOjHzv//9z4wdO9bGv+CCC5pnnnnGLLvssuarr74yc8wxh3nnnXdMnz59SklfI1UEFAFFoN0I3Hrrrebjjz/2ZkMIoPnXv/5l+C3S/fWvfzU77bSTEYFAbLSXXnqpHTtjA4Qe3H///WbIkCEhn67LE044wZx77rl1/t3Vo9sQVQZQ/uacc84arOHZX3zxhSWorvIZaJ3jOX8ijXVe9p6w0bgqAVp48eijj5pNNtmkLsVRo0ZZYl73oJt4/P73v7cfJJOHn/3sZ90k1+3LJiT1j3/8o3nggQfsH9e9e/e2hFVm9ubAAw+0BLKIHCpRLQJFjUMRUAS6MwIbbbSRmT59emwRttlmGyOS1djnnfCA8YLxIeqUqEYR0ftcCDz22GNm0KBBdXEcffTRBklbd3X/+c9/jKhhmJNOOsmstdZa3bUYbcs3qwCsIJx//vlW0jpt2jSz9NJLF5IfiOrf/vY3893vftfGd8ABB5gLLrjASlCZwO23334qUS0EaY1EEVAEFIFkCHzyyScGAc/yyy9vNt5440QvKVFNBJMGyovA448/bgYOHFgXzVFHHWVQd1A3ayDAasHUqVPNvffeayZPnmwefvhhuzw0ePBgw8z+mGOOKUyieskll5jzzjsvFti5557bPP3002a++eaLDaMPFAFFQBHoiQiwAvvII4+YF1980aqulVlGVoPvuecec/311xvU5f773/8aVBP33HPPRMnGEdUf/OAHDfv4RJF3UKBus/TfQZgVmpU//elP5hvf+EZdnEcccYSBUKjr+QhcccUVVmdaFO3NiiuuaIkp5JQlnfnnn7/nA6AlVAQUAUWgzQigpw9h/OUvf2n1U3fffXfzq1/9qpRcsZJKWr/+9a8N/T4rWWeeeaY57LDDUu0NkM3lVj0smkklqlFE9D4XAn/+858NujJRd/jhhxvZnR311vseiMBvfvMb8+9//9sS1FVWWaWtJWSTFRu7zjrrLDPPPPO0NS+auCKgCCgCZSLAJmuI6Q033GDVoeaaay7zzW9+06pdrbnmmoUn/c9//tMMHTrUvPLKK4bVMrHwYjfQov4n1lfMuuuumypNJaqp4NLAWRH4y1/+Yi0TRN9nZnXZZZdFvfW+ByLw+eefGyTrbKpzFi2wXIEaABJWiCMbq1rh0C1eYIEFVEe1FWC3MA3037CIwkCsThFQBIzZddddjZhRNF//+tfN8OHDLWlEgsrG69GjR5cC0ZNPPmnH+5VXXtmwDwUrL4sttpjhPgtRFfOWllhHM3v88cfb/Q1R/257L/oY6tqIgBBVrx20Qw89tI250qRbiYCoeAQye68kKRMU2ya22267QCSsgRDYyrOyL8Rci01bzFOVnZTG30IEZONcIJOfFqaoSSkCnY0Afavo4wfYHBWzUTazXItgoNSMYxNe9ggE2EwVC0WBmCMMFlpooQCb6mkdduWFfNb9CVFNG1VHh1cd1TZPMdhAs95669Xl4pBDDjHoLqrr+Qjsu+++dkb9wx/+0Hz66ad21+d3vvMdK1F/++23jRxqYe0HL7PMMoWAQZv7+9//7o1LDP9baw1qR9ULT8d6zpgxw9x5552x+aMvoZ3JBDg2jD5QBGYlBOhr2WWPruhdd91lV69YddhcbFi3Su2OftjpxaKGgE11LL341AF9dRMnUcW+PJZceopTotrmmsRMkE8vBdNOV155ZZtzp8m3AgEOd0B3iWUnlmywO/vyyy9bgoo1gHnnndc88cQTpiidKZT2G7Ut3fXfilovNg1nPWTRRRf16ha/++679gARJarF4q6x9QwE+D7Y2ISuKjv+UbliaZ69Iq1wIs40HP5D+hz4gkpAEod1mM0226wuqBLVOkjUIw8CmAGSJYC6KA466CDz05/+tM5fPboQ6Ek6d88//7y1m4ftVByz+e9///v2GikZu0+RcOrmJguJ/otBYNtttzVrrLGGV5KCzVw2byhRjQFPvRWB/0eA0y8hjG+99VbhJiLff/99e5JmI7CxApR0U60S1UZI6rPCEED07zOIz0lEEyZMKCydnhbR3nvvbQfekSNH9oiiscTPhqqVVlrJ9O/fv1ImlP0xXZJ0hl15US86DgEsKrC0WJZj6RCyikSIY3HDjoM3Nthgg1LbEQM8tidRUSnr+F/Iw0cffZR4IA9jUPQ1qx18swsvvHBp5U2aZ1R2aFudcNpi0jy3O1yjI1TJGypXSDeLdEmOUD377LMT22+NI6rd/Qj2Osw7WoN2Fsic2G6rU4SWSgrktKBZoPTxRRTiFvz85z+P/ZNDEoLx48fHR1DCE9FpCoRslBBzz4+S+mSTguheB2KkOhCVl6Bfv36BSImDHXbYIZClt5aAIGbAAtldW2paQqaCH//4x5U05MzwQKQkgVh0CJZaaqlg4sSJlWdFXYiOaiB6qEVF1zQeIaWBTKgCIWs2rKz+BLJbutKXySpAIBOspvGkDSBHQ9o0+P5Fty8QA+lpo8gUnvYr+oOB2DUO2JgmZDkQM0OV8pKvsp1MQGzaYAve4b5oxx13bGn9l13WVsQ/YMAA+z3yTfr+dt5551ZkI1caQlQrbRDe4P6EqOaKt9Ne5tx7dW1E4Nlnn600LtfI+JVjLNuYK3/SDEpi8zOgUxaJbyC2NgM+lDKcnHVvcRGdu2DZZZet+xO9zVKIqg4GZdRmEMgBBoFIngKxFxiIiaRg1VVXDYYMGRLI6WuBHBkYyAEXhScs0q5ATvmq+Tv33HMD0T+zfrKprPA0iVD0iW1ZXeR77bWXtepw4403Bqeddlogki9L1N3zIn5Jc/HFFy8iqkRx3HbbbZZ8u8Crr756IJIgS57AVY77tX2Fe17UL30Pu6RlJSWgD1hiiSWC008/PWACUqb70Y9+FKyzzjqBnBoUbLjhhoGYE7JlpP/+7W9/G4gkM/jggw9KywJEGZIsppQCOQjETvBkE27AhAHHZK/oiTuTSeqUvl4MyAfXXnttIKb0SivjrBSx6JQH9913X81ECz+wFl3ZxFAoUU0MlQbMg8Bzzz3nJarf+9738kRb+Lt0ULIb0kqFZAkx+Pa3vx2IPpzN+4gRIwpPjwhJQ5TCvXEz+BfdMbdjMPAWrmTPP/zhD3bgYfDx/Z1yyik1HWgR2ZHjWCuTGsgiZmHcwI6EUzYUFpFMTRxISZj0IbV1fxAKJJvcQ5TLcFGiiuRYdI0rSQ0bNiwYM2ZM5b6Ii1YTVSaSkEQ5AtJmH5IsutaVoshmUEsgKx4FXUBUXX+DFB7JtagaWPIvx04GcuJPQSnVRrPPPvsEP/nJT6znCy+8YNuVbHqsBOrTp0/w1FNPVe6Lvpg0aZKd/GA+DidqHnbyJ8vTARODookq7RPTSUwimWQiwe7Vq1cgKh2lTwqKxq5RfKx20B+++eablWBMeiDosk+g4lfkxf77718Z89dff33bLzKm0lfRDz766KOJk4sjqnLkduI4ukNAlai2uZZcpxeWpnJNxxjnbr/99mCnnXaqeywbjKzESowK1z3L6wG5oDN29uZcfCzjItkQXUrnVdgv9uawLyqbjOrixN7dTTfdVOefx6PVg4HLa6uJo2wUCFg+jP4xEaHtQeTkWD+XvUJ+ITJIDHBIOldYYYVKvEjnwnZkKw9yXkCWkOIitXXLpGDN4FCmgzTKoQn2W+F7oexIp5wjX0hWi3SkydI7acX9ic57YUmy5C761IEYTQ+YbGPzl/hFVzKQs8stib3qqqsKS89FFCaqzo+6ldOFrISX9vvGG2+4R4X9nnrqqYGcWBSgqsV3Q58nu61teSHopDtt2rTC0otGBCFZZJFFKhMDnqNaIbvSbRuHUBY1cac8SP35bpxqB+mB68YbbxwgJOgJTkxTWUk4dUd9ygErdtxlMstKXtGTSTCDENO/orbC+EZfRPq0qSzjtlgKsO8TR/hPiWpPaKEdVIZ//OMfNQ3MNTbZLBSbS5aeMBjsc8wC5Vg236NcfltvvXVw4YUXeuPgo+gJBxS0cjAIA9kO4hhOH8mmbLYJkHqidwhhL9qxtO8GOA4TEPNYlSTEvmdFSlbxLOgCg9hIKViavvvuu630pGyiykDft29fSywgF0zwnJoBAz9qD6gBFOkgqhgNpy3F/b300ktFJhnQd4klgUr/xQDs+i/0+yCtRTsfUQ2nIUdSl7I8DQmFDFI+JMlMQJAyQmggdZDYMh0rWqR/zTXX1CWDWgL5KoqoMsGAkPocknTadk9w1BnjLASclSUwpP9DAFKWigMH/NB+nBObqbYdufu0v3FEddSoUWmj6ujwKlFtc/UweLjOPfyLwn6cQ1oTt8TFTE2sCMS9mtmfUzzQ9/M5OjaIbHd3rRwMGmHVCuJI+kjFWM6ESLGEyAYNt5TbKH9ZnhFv3GlXYmw7YANSWQ7JExuNGGBZuiybqDYqB9I/sZcbzJw5s1Gw1M9avfQfziDL0EijkFDxy31ZTsz5ZZI8FZEf+gdWwBwBZ3MlfR+SZLckX0Q6vjjYLIeEU4449j0OIOioLhXhUP1BB9jn3Ml1bCbr7o4VAYQTuFdeecWOw2W2XdLhO6W/Rd+XP8Z59PbdPb9iOYOgiRx7KsK8wV33NKKqBv+lZtvpMPSOSaKoE30ra8st6s89BwSInpbXGDEG40VXyp604Xs3qx8GkN0JStE45GO3ZmlEOTz6qNvdS0dsz3oW6WJd3qWTsedCY1S9DCcDoRGpiME8CWeyn3HGGUasPxjRFSs0OekBjSyVGlnOtPZZRUplpGOzBwsUmlCHRYYNQ1FhMSL5s78dlr1c2ZFNPfb7pI2q63kIiCTOiHqFkaXj0gsnalWGg2iwvRt1MuG0ppN6wsl1jGmyF8SOv9iwxsD/1VdfXSlyGeapRDBlZDOckZWVSjrRC/p/0WONenvvRZ/VyBHbdc/oz2UFtM6/u3ooUW1zzYkytxF9vbpcyPK9JRN1D8RDZtZGTP0Y2UhgOGpTdNJsB3bddddZ8iFnxxdu2Bv7jHRecU4U7o1IF+Ieq38DBFpNHOnAsLMnS9BGlryMSBprcgeRk41sPcYmI4OrLN0aBiPZjV5X3prCd/Mb7HpSVtmh7p0Ad/PizbLZbyVRZfwQ1bJYrMs8uU70NI2oOBhRmbHpMwHDNqxsSIzNT9YHzcY0DO+LRYes0bfkvTiiCumW1bKW5KEliSSSL2ug0hBg16FUdN0fytWNnJwLbxXAw+9i9idul3yjuDr9GctdmIHhjw1jPc2NHTvW1j+6iywliiHqmj+WVN1moCLKfumll1pzXz7bgfhhWqioZcQi8ps1Dpb80T3DrE/4O2EXPmbWepo78sgjK+Vkx/Zll13W04o4y5aHJeNWbpZrB9CodaAnL8dHV5Jnkxw6nWXpjFYS6qYXWAgI923uWohqNy2RP9sqUZWabaeTnX92OTmaBySlnD3cyLGUyclWoldj5GO2Z8EvtthijV7J/OyCCy6wy8RxEXC6FqdFFemQNnOUKMeIhp0Yt7bnlic9Zi78bideC6GwEgwhVt7sIeHkRJOyVA68iZbk2UrpJisOZ555pl1lQHrCCUJiesaw8iCmhYzsTrfLcCUV1UbLUb984zixgVmaegVLsaysiI66kZ34Rg7LsEuZYr3BIAEr07WqjNEyiN6mrU/qldOwilaRiabn7tuRLhJVTkm6/PLLXTbqfjfaaKNCpOiiM24aqXFxApYISqx6Ul0mcniwIkf7jaYtE00jm7js+JYj+o54VTYgmqOOOsrIhlWbH9EtNrIJsiIxlsmmXcofPnx4ovzKXhUjOq51YVWi6ie86psRAZS3pZXV/WH2pZMc0pqoOSPuZZnG5p1TWop0bL7BugGbX9gghjSVjQwY12a3LQa3y1To7+lSXDZFsPElbPuRDT7sGBdSF7vxKWsdt0O6iZ3fcePGebPMCVkyGfQ+K8KTzRngGP22OUGI3fJFO0zbyCS1JtrevXtb01E1ngXetLqMLuuY52P1IYwtUnMsVxS9Sc2lyW+70iVtJKqYHWuFa5cVEjbrYhrqoYceqpxqhtlD6pnNZEW77bff3pobI142c2IVxDnsHmONpGhHPWL31zkM/IfNYO2yyy6prDfESVSFDLskesSv7vpvczVi9iTc4bprGmycw6SFz1C782PnYNmOZRo+dEzSyDn0lRNSikoXe4UsX06fPr0uSkgkp1WlOcGjLpIYj3YNvjHZKcWb3fci3au0O9m0ZQmdM7WDaaGiVSzOOecca2QfQ9qQKtlEGGBahd3F1DOntBTtsI2IORifo+1AZMtw7ZhkMQCGdxPTB3DP6XFuR3Ga3cTNcGlHGckT/Q6HRdDnQGxYJsZGLTviKW9ZRtrbla6rB/pDjMK3w7XKCgll49AGxsAFF1zQTry4Lus4UGw5O+s52FfmmGPnUDngBLCiXdFElfw7zhD+VaJadM3N4vFxCka4gbnrRucMt1q6Ga4iJMAc74q+FAavsatXhrvjjjusQfG4uBmosB9YpGvX4EsZWinhRHeRWT32Pu+//357pCmkbvTo0aWZiWqHdHPttdcOwqcHhdsKBG7LLbcMexV23Y5JFmbumLzF6R3jP3HixG5dRjLPN4/9y7AhelcoVgiwaYrZtaJdu9KNloNDM9CvLtombjQd7ltpvs6lz8SSCQi6+hxXe8stt9iVNPe8yN92EVVsK7vJI20Zcu7uWUVMYw83jqjCEXqSU4lqm2sTY8OOnIZ/fSdPxWW1bOkm6TKrxtg2R09iPJ0NPmU6lvlZBvLZ3mSQgoSEjcYXkZd2EAzy3WoJJ6d6hTsyOkc2dJXp2iHd5FAMbA5D0ESf2xYPrGk3tGN3JGbR5W7HJKvoMjSLr11lFHNCAe3X55hoIp1HTaho1650w+Xgm3VjBOUsa7Mc/SvqVhA5vh9WQYpeYQmXy10zjrVyMxXlO/300y1JFLOOVjDiCONhhx1WikSVVQ2EBI0mlKi3JXUIilybCP+G+/ekcXVyOCWqba4ddGPCDcxdo8vWzLVKukk+WBYhb0h6+ZCiO9PdEkqzPCd9jk6jbA4IBgwYYHWW0D1jIILAim1RSzSKXMokX+0afFst4WTCIeanKrN49P0wEO06aX6Llkq1Q7pJG2LZkKVi2i6DO79I3RiIeF6Ga8ckK1yOVuhXt6uMkKatttoqXNzKtTvKtOjjf0mgXem6wqGjySoWS9LsgOdwDiZ/ZejkttoKiSsjByf4ltshr5DYoh19YCPCyDjT6U6JaqfXUA/JH2aAHDkN/6L/GedaLd0kH5w81eijbqSqEFeOZv6Y7hoyZEgFHzpqMOKEIRT+i3btGnxbLeG8+OKLG9Yl9Vy0eap2STdpIwzyHKXKsaX3i6oD522X6doxyaI8rdSvblcZWfVAGs5EA/1U8sFJUeg4MxmKO/ozb323K12X71ZulmuX+bpWb6Zy2Lb6l+N3w5vDEPJwQhVS+7SqdHFElSOre5JT81TCfNrpZCnSa3aIU0hkl6k3a7Lr3YiukhFyaPbZZ586syyYqCJMT3EiObUnX8mRhWa55ZYzmMLq1atX4cXjtBAZ6FhlMCJVMJh7wdi0DIjWfJSQYyMzeyMWBwpNm5NgOE1sr732svGK9MZgTkmO+qykIxYWCjcHU4m8BRdgy+ECMggakdbaNiskw2Dq5qCDDjKyO9+eCFZkVkTqbzhpLM6VcfKMS+vVV1+1p4o5UzsyybKn0XC4AgbVOXmuSAeWfPMiTTWnnXaaWW+99SzGQrCMbL60puUwpi5LuYUl2+oyuoxTr7K0ac1+OVx5hpkeTI/Jkq4LWuhvu9KlEJinEmGBPezFFQoTRPxhIB9H/RfdN9mIW/iPPpBT82QzlZEJiZEJsz2cRHbGF54L2ahrxHKM6d+/v40bU270vZh7FCs25uCDDy4lTeqLw3NEhc7I5NLIBMvWISYmOeXxueeeS9yGOeCDgwmiToiq7Wei/t31Xolqm2uOj0N2q9blgpOBovZDXSBOgYIwxbnucKJGXN6dPzZiZSne3Xp/KWfRtlTbMfg2OwmGwk+dOtU7ofECk8NTDhawp57JZiM7UOSIyvsqEzPRITSim23tfjJIYP+zDMdEg8EozrXiO2nVJAtMGfCw2SoS8ZoiY+cUnJl8YZ+5aNeqMobzzXHD9IHYWobQcBymIxzhcEVftytdJsscvcmEJM5BspIevRkXRyf4Q8ohckximXCtueaapWRr0003tYQUm7A48KWfhaQy9oilEmvztMjEb7vtNtu/uvGb+pJVHtsniiqHkRVEI6up5phjjkmUrBLVRDBpoLwIQMjccXHhuCCjzihw2L9d15xRDHFGkuEkjnTaOAzSI9nF6HZRDgP3sqGsbR1zOwZfH3ZlE8domkjkkLpBKH0TqGj4pPftlG4mzWNR4doxyXLfJt+pz0FQGfBl84jvcWq/dpSRTEIkOOSkkStj9aFd6TYqZ1nPZC+AlcZhdJ4jhyFXjliRJhNAsZhRWPJissmIHmpLJhrhTDPBYZxhgsNYyyoWpHHzzTe3ByuI1QEjy/LhV3Jfy1K9TYeJJasdSMmvuOIKM2LECBu3qADYQxs4qCSJiyOqhx9+uF2lShJHdwijEtU21xLnj3OyStTRgMW2W9S7bfecdsPJSHxUohNmT9ihw2LpTWximj322MOI7mPb8ldEwu0afBvlvSziGJdmWel1gnQzrsxF+7djksWJN2ICzIj+bd0Eg4nluuuua095K2o5sx1lpJ6Q9NMHNXJlrD60K11fOcs+CUx0ue1yO1JcyBwSPtmoZvt/xiv+xP63FVD48pfWD4km+LIigEoMBLks9Y1w3lAjQ2qKUEjMRFlSLkb/bRAxi2XkAAm7DB9+J+813yKSWznUwAp8IPyM87LR06DahloA7VvsqCdKipOt6FujrqcRVd31Ly2nnU4++spmIWlsleuiT3rKW0Y2MLEhBScflM0nvzj5sALRp7TX3fkfGxZaaYsyCVbYV6VdYFapKCcko2aHf3i3P7uJi06vqHxrPPEIsKlIBqyWWsmIz40+KQOBVm2WO/TQQwMhOpUiyH6JQI7ktffvvvuu7R/YyFakY7MaB4+wIY7+R9RyrPk434EvRaUrKlc2LQ6t4bAI0Q2tRI2tcBG+VO6LvMCiChvHRHprLdm4uLGNCwayiua8mv6KRNWWIcwduA7XX9NIukEAlahKrbbTOQlWNA/MtDiLvFOcHMdomG2KuSi7GQadMCSpnCPODJyZKRuC1KVHoNGyItJrpGBFLsWzrCS2RGMzSp2y1MdynLrug0A79Ku7DzrdO6et3CxHf8MqH5vwcHKUqBk2bJiV8qHuhS4ly9Zi1q4UUFG7uvnmm40cbGCX5pF2on5QRn+EGgl6zmyiDas60Uci2S2rjEUBFydRlRPa7MbVotJpdzxKVNtcAyzjyDnVdblAqVpmXXX+7fKgs+DPpzuz9957G/SaIKzq0iOgxDE9ZvpGPAKdol8dn0N9khaBVm6WwzKHrKxYSwNsaAo7OejFoAOMgAWLKGU5JspyzLFdBmeSjkpLWZsuyypDK+JFvxfhUdT1NKKqS/9tFntz4oc0sro/n+HjdmZVNsPYk6Kwh4kdVxyHFXCiB0snHF+oThFQBBQBRaB4BFp5GAnL+2K6LeB0RGxL47BVix1i2acQjBw5svgCSoxCTgPRVw1WW201Ox5y7DIHLbTiuNhSCtSCSEWiWscd4BPYGe5JTolqm2uTDsBHVGXnYZtzVp+82Lq0R+qRX5EC23xzxF5ZR/nV50B9FAFFQBGY9RBo9WEk6D6KlQjbx3MCljtshXPp0Zsv0nHSoey8t2mJSllw8sknl3ISVZF57pS4RKLq5Q89jajq0r+wrnY6jJ+zszLqNttsMyObl6Lebb9nZzyGw9HrYdckRunDuj1tz6BmQBFQBBSBHoZAOw4jQZ0L6w6okqC3zq78ou1WU02oGjjLMb4d7D2sKgstDjZnN9xww7o4hagaESDV+XdXDyWqba457GTONddcdbnAGDEmLNQpAoqAIqAIKAK6WU7bQBSBOKIqlhvM+PHjo8G77b0S1TZXHbPWqMI6Wdpkk03MlClT2pw7TV4RUAQUAUWgkxDQzXKdVBvtzQurmxtssEFdJpSo1kGiHnkQYEkHY79Rx7nVjzzySNRb7xUBRUARUAQUAUVAEbBqeEpUtSGUjoAoZdvTnaIJDRw4sPDj26Jp6L0ioAgoAoqAIqAIdE8E4iSqYpnBHgPbPUtVn2td+q/HpOU+Yt6pLk05mcNwLrA6RUARUAQUAUVAEVAEogiw2Y0NzVGnRDWKiN7nRkBMf2AmrCYedj8+/vjjNX56owgoAoqAIqAIKAKKAAjEEdVDDjnEHpbQU1BSiWoH1CQ6quiqhh0mJzgeTZ0ioAgoAoqAIqAIKAJRBJSoRhHR+9IQYNc/u//DDgVpjkdTpwgoAoqAIqAIKAKKQBSBqVOnmvXWWy/qbVSiWgeJeuRFADuq2FMNOxofitLqFAFFQBFQBBQBRUARiCIQR1QPPvhgc+WVV0aDd9t7XfrvgKrjZCpOqAq7dddd1+qfhP30WhFQBBQBRUARUAQUARD429/+ZuAKUadENYqI3udGoFevXmbmzJk18XBcHY1QnSKgCCgCioAioAgoAlEElKhGEdH70hCYd955zWeffVYT/1prrWWeeuqpGj+9UQQUAUVAEVAEFAFFAATiiOpBBx1kfvrTn/YYkHTpvwOqcv755zeffPJJTU7WXHNN8/TTT9f46Y0ioAgoAoqAIqAIKAIggDBrnXXWqQNDiWodJOqRF4EFFljA/Oc//6mJZvXVVzfPPPNMjZ/eKAKKgCKgCCgCioAiAAJxRHXEiBHmZz/7WY8BSSWqHVCVCy20kPnoo49qctK/f3/z7LPP1vgluTn//PPNxhtvbDbddNMkwTOH+de//mV++9vfWt3a3Xff3ay88sqZ42r2Iqa77rvvPnP33XfbdPbYYw+z8MILN3ut0OePPvqoufPOO83ZZ59daLzRyFjKuf/++2u8BwwYYDbZZJMav6JvXnnlFfPrX//afPDBB2annXYynIzmOzGtiHSZlMV1ot/5znfMMsssU0QydXGgXnPbbbdZaxqUke+kbPfqq6+a6667znz88cdmq622Mptvvrn3yOSs+fB97x9++GGlnBwcMnz48NLqknz78uDK8+6775pTTz3VXHjhhQZd/Dxu8uTJdmAeNWpUTTSt7ItqEm7xTSOcycr48ePNYostZnbbbbfcOfNh/emnn9YtJzN27b///rnS85WLzcXXXnutFdbQ92277bYGFbmiXbScWNp58MEH65JBmAT5K8L5ypu1b5pViConIqlrMwLysXMsVc3fqquumjpX55xzjo1DdFNSv5vmBelAAjlNK/jWt74VbL/99oHYgQ2OOuqoNFGkCisdb9C3b9/ge9/7XrDCCisEIm0OZDBOFUeewDLYBksvvXQgg0CeaBK9C44LLrhgIDrKlb9LLrkk0btZA/3lL38JaIODBg0Kdt11V1ufY8eOzRpd0/fefvvtQDYL1vy5b0AGiqbvZwkgA1+w7LLLBjKhCvbZZx+LseyMzRJV4ndkRSSQAc62G5nMBULUghNPPDHx+80C+r73zz//PJBdwEGfPn2C7bbbLpDJRiDHKTaLKvNzXx5cZDLpCYSY2z7p/fffd96ZfuXwE9tGt9xyy5r3W90XvfPOOxZPIW01+RChQnDGGWcEZ511ViDkoeZZETeNcCb+3//+9xbn73//+7mTi8N6ypQpNg1RS6v0Td/+9rdzpecrl5hqDGSibPtcIcH2+xk4cGCudHwv+8r5i1/8oqZfop9ibKbfKML5ypunb6KtRbkD90Kqi8hux8ShRLUDqqJ37951ja1fv36Jc/bGG28EQ4YMCeaee24bT5lEVU7QCuiowh3i6aefbomrSMoS5zlpwD/96U+2TCJRta+I5M/e33jjjUmjyB1u5513DuT0sJYQ1c022yw44ogjcuc5TQQQGtIVybV97dxzzw2YKH355ZdposkcdsaMGcHiiy8eHHjggZnjaPbiNddcY9vom2++aYNyL2bhAtIuy4kkM+Dbdt/FPffcY9vuI488kivJRt/7xRdfHIjOe/Dee+/ZNH71q1/Zcr/88su50oy+3CgPhJXVj2CppZYKxEa0LXMeonryyScHc845pyX6YaLa6r4ojniDMfkTKb3th2lXIqmLQpbpvhnORPrvf//bTuTBOtwvZ0kwDmviGjduXLDEEktkibbunUbl4tukDT///PP2vX/84x/BfPPNF8iqVl08WT0alTMc529+8xs72Zs0aVLYO/V1s/Ii+MnSN8UR1TL70tSFL+AFJaoFgJg3ikUWWcR25uGZUZoZHB+RLCvamTwDY5lEVcxoBbJEHEAYnbvoootyD0YurugvZCk8yLrB/o477ogGLeVejCZbEgUZL1uiysCLNHXChAnBXXfdZaUkZUuOZcnJdsTUKZLOP/7xj4EsU5eCZVykSHFXWWWVCqGLC5fHnwGH70tUK2w0SIyZfCAtL8shFf/ud79biZ6JAJNJpG55XKPvHWnxLrvsUoke6ZQsmQYTJ06s+BVx0SgPxA9hkiX6QNSDcvcNslkkQNKFBHzo0KGV7LeyL4oj3tTpSiutFBx66KGVfImqjl2ZqHjkuGiGM30GmDAp+uY3v5mbqMZhTREOOOAAu4L297//PbjhhhuCl156KXPJGpVrxx13DFhFo34ff/zxYNq0aZnTiXuxUTndOxBHVvKKWC1sVN48fZMSVVdb+ls6AizThUkq13R+SR2dlXNlE1WXjvtFckNewwOIe1bkLxIZyDjSCjoxljjLds8995ydyYtuanDZZZeVTlTp+Kl7ZtfLLbecvUblgIGhLOfSFB0wmx5LxaL/G9CxtsKJPq5NF4zLdAx6ov9q1RpQHQFnJiFlOr6J1VZbrZIEag2km1di3uh7Hzx4cHD44YdX0uTi61//ejB69Ogav7w3jfJA3O65m1jmkai6vEJUwxJV5+9+y+yLGhHvt956K0DaimPit+SSSwb77befy1auX4cjkfj69jFjxliVFvAtgqi6zPqwltMSbftlwo4aC1Jk0Yt1r6T6bVQu0hG9VKvqwffC3zHHHJMq/qSBfeV07zL5gKhSp3ldo/Lm6ZvEMpDFx+HkflWimrfG9P06BBZddNG6xrbiiivWhUvi4evMkryXJQwzzg033NCSKtk0kiWKxO8g7ZONTFbnDSJVtkQVvSE6TDfot4Kooue25557Bm5pmKUvBgV0gctyjz32mG17SPDRVX1FJOWokdAmi+igm+UbSRDS1HBH3uydLM/vvfdeO8mRTYbBD37wg2D55Ze3OrllSlSdpAQ9TdlQZAkjy7PHHXdcliJ434l+76jlHH/88TVhIcunnHJKjV+RN9E8hONuFVEtuy9y7bNRecCYpXEmmXxHRbsozkx8mLgz2cOVTVQPO+yw4IILLrBpQcxZCaE9s6ydx0XLJZspbZ+E/jHpoPsLAStj8hxHVFHXYXXrpJNOylM077vR8ubpm+KIKtLvnuR06b8DahMy4mZC7peBNIuLfgRZ4kjyzgsvvGAH3jXWWKOUpZlGeWBprUzyRto//vGPbZ2w5I/OJvpn6ElxnbdjblS26DMkOWw0Kss5iWp485TsjLdl/+tf/1pWsjZeJh8MdOhVlu1YDme5zzmWE1n6L1uqevPNNwfbbLNNwKYT2f0f8L1cccUVLhu5f6PfO98Fg2/Yof9bZjmjeQin3YjYhcMluY4jFa3sixqVh3pl8w/9RBHLxVFMojgzkWaSR5/EH2OGWLIILr/88uirqe/jsA5HJLvjbT+BmlIe5ysXm6mcQ2hAH4headEurpxilcT2D6+99lrRSdZJxvP0Tay2Oc4Q/lWiWni1aYTMwsONjGuW67K46EefJY5m70ydOtVK3NiA4zZtNHsn63Nm0SyhyoEIlShY+k+jGlF5McUFO+2RhLk/BgSsG3DvlPxTRJcoKB0+G7fCOqJ0YqRZlkNqSrnClgVuuukm2x7L0A0Ll+Pqq6+2ag5u2TT8rOhrSGp4OQzdZwhcGYOfyzu7pCH9zjHBYbkUslOUi37vlDG8Q5qNNqiSoGNZlovmIZxOI2IXDpfk2kcqWtkXkcck5UHqCOZMxIp0UZxd3+D6KFaaGEvCetFZ049i7SSo4Xb0y1/+0pbTbQLKmpavXKx8OEffj561mDhzXoX9RsvpImZiyQSzDBctb56+SYlqGTWkcXoRQKcpSlQxpZPFRT+CLHE0eofZLUuJ5Jnld5Yt3F8ZS8WYg2EHKDpKLNOy6QcpXFk6S3Flb8XSPwMbHTLSGHajI4Fj802REjhf+TBlwg5tNhohnUIqE5Y++t4pwu/YY4+1EqEi4moWB8vtSGWwHoE+35lnnmklJmUs0bq8YJmCpdknnnjCtl2WSlGVKVK/Ovq9szOavgQJ24svvhiwMQW1jqg5JZfHIn6jeQjHmYTYhcM3uo6Silb3ReQtWh42O6I7HyZwWAGgDlClKdI1wpl0yl76R48dKS678LHGsv7661s1obxljJaLCTu68mwKps9HlYXJdBm6+tE25cqC+kZZk9hoefP0TXFEFcl+T3K69N8BtcmGmShRRU8ni8OCAMsWZTk65Ghe3T0kpwzHgE+nSDpIKvgIyyDFjfLOpoGyd/2TPuTUlRVCjl4YA3KZDqk4qg1gC8bY4RQj6mUmaePGLBYS5FY4pDJImhgAKSMTAqxVlOmQ2mL7l4kWagZIiSCPRTrf945OHwM75cQOZJFmfXx59+XBhcNME/koQmoOqQhv2mxHXxQlqpSTycAGG2xgd8FDTvl+sfeMxYUiXSOcSQei6nTq86YbxZr4sAtMWZ0ZRDlMosYiS9Y0feVCKs03Stuh373++uuzRt/wPV856SvoJ5AYl+Gi5c3TN1EnYBT962lEVU+mkhputxPpqZFl1ppsiITLTJ8+vcZvVr+RpVN7IlXeE266A46UVaxBGCGrLcsupyfJBMCebtOyRFucEKfriOTann4ly/AtSR1MZWevEUlKS9IjEZncGJmAGFn5aFmas0JCnJAnesD2BDeR0NsiywTdyEEO9uQ6kZYbkToaMadlZGNbj4SEUxQ5LVAIV6nlk4meHQMZH4U4lppWJ0SepW/i9ErRe6/LvlidMKJaVeffXT2UqHZAzckyg3n99ddrcsIAI/plNX56owgoAoqAItCZCHB0LRMEkQB2ZgY1Vz0OASWqPa5KO7dAslvTcCZ42IlSvEGqpk4RUAQUAUVAEVAEFIEoAmLr24hd6Ki3UYlqHSTqkRcB0WcyohNYEw2zcjEkXeOnN4qAIqAIKAKKgCKgCIBAHFEV3Xjz85//vMeApEv/HVCVYmrJ/POf/6zJiRhct7p0NZ56owgoAoqAIqAIKAKKgCCgRFWbQcsQEPMxRs6zr0mPjTRimqnGT28UAUVAEVAEFAFFQBEAAbHpbfr3718HhkpU6yBRj7wI9OvXz4jZmppo2FEpNuRq/PRGEVAEFAFFQBFQBBQBEIgjqvvuu6+55ppregxIuvTfAVW56qqrGjGiXJMTOWXEiGHyGr+HH344tyUATDvJqRtG7CzWxO27wQSJ2Cq0Zm58z5P6yZnJZvvttzdip7PpK5h6EQPp2PdtGjYuAKZMxGalwZpCUodZGXbs5nFi3D0Rri4NOU/ami1y91l+F1hgASN2DRO9irmXaJtK9GIoEO3GmeUJeTe8xKJF3nRJU05ra5hO+CHtCHNbeVzfvn0NGx2TOExBRdV3krwXDoO5LKQjSesTHfaotZBwfM2uxbarkcM7TBpzb3wj7DSmLeVxrCLRxyVxmO1hQP7qq6+SBPeGoU9AIMD3ktZhjimvBRa+G/YiJOkDyR8m1OTEp7RZrQlPf0SZkzj6P8agvBhTRrEbnCRJawpPjnDO1deDJ6pzadowadKm8jj2kLDhOYkDU7AF4zxO7K1bk4XhOOjn+IajTolqFBG9z40ADY0GF3YMzGIku+LFQD969OjKfZ6Lvffe24hR96ZRyKk9Rk5kahouSQA5s9521M3CyjF5uQcF0hBD54aPNYnDusKll16am6iKgWpz0kknJeo0GXgnTpyYa2CgbAz2pAnpaObOP//8QvSe99lnHyMnVzVLzj7HmsW4ceMShW0UCKKBrUpUYpo5Oa3F/LyAjQRg+sMf/tDI2e3NkjRnnXWWwTxRXsckEjudzRyTyFNOOSU3YRQj8WaHHXZollzluRhBN2LUvnKf9UKOJDaHHHJIotflAJO6/jHRi5FA2DeVQx8ivo1vIeS0gbyTWFJJ2u+KAXjzox/9KBeBc6USg/aJyOq1115r5GQ691rm37XWWsuw7JzEySEquSd3pCMn6Rk59S1JkkZO1DJyumGisI0CQYxPP/10k8QWM8Ie/vI69q2ccMIJNdHEEVX6aGz59hSnEtUOqEnMS6AUHXZIIcMDH/qqciyiDZLVcDgSJga44cOHmwEDBoST814z85TjO60UIGuaEGxmlAxKDE7N3JgxY6wkAQKWhHxF42PWSjkxgiync0Qfe++ffvrpyjJJko7HFwm44kaNGmWY+TZzSMdvvfVWGyyJdNsXn5x8Y73lJKJEZEqO6iskvS233NLIOdi+LNX50a6vuuoq6w+Rz+Kc9ENO3Ukk4fzzn/9s5BhLm1QSkunLE2QBBzlGstrMQRohM1nT41AAvpPBgwebYcOGNUvOSuJPPfVUGy5LmuSVNiunKJm99tqraXouAEbE5TQcu3KQ5TAKykhZkUa59ujijvtlosOEB0lzlu+T74R+ASnuyJEj45Lx+nNQg8M5jdQuHBnlxclJbGaLLbYIP/Jeh/v6vN9M0r7+yiuvtOpn9EVZ+iPaEhizinXkkUd6yxX1dH099Zq1ryddxs8DDjggGr33/oEHHjC33367fZYXWyanSdrELbfcYqZMmWIPLUgS3pdx+kBwigqrlKj60FK/UhCAVLGcFnYsn4SXLl3nRSeSZOAMx+WuWcJiAE7aeTmiyhJSHqJKZ5+WqLK0krXzQrc3C1GlE0m6HOkwdb+kSUedlqhSz1mWI0mX5UEkPmmIKpLJpEtWrmzul7ZDG8pCVPO0IZbVIVZpiSoEjglfFsf3BsFJS1SzngTFQMTENC1R5RvJYmCeb5JJZFaiig59UhWFMP60V9ptFqKKRCkrUaU+8xBVlpgXX3zxcFESX6PiQ1+elqi2sq93RJWxJStRnTFjRiaimrevz0JU6XOTqihEK9r1u2mJKqukWckxq34+oopKAaqDUacS1Sgiep8bAZZLWK4MOwZZOjjnlKg6JBr/QhaVqPoxQoKlRNWPTdRXiWoUka57J1FVourHx+erRNWHijFOoqpE1Y9P2DctUUXNBHWOnuJ06b8DahJ9Spafo2769OmVM46RtkyYMMHOdlWiGkWqeq9EtYpF9EqJahSR+Hslqn5slKj6cWnkq0TVj44SVT8uPl8lqnm2V/sQVb/UCLCxqZkiO8sGI0aMKISoPvroo+ZfkZOwfJlmpssyb55lW5YXWWa87777ajbyINnzua233touv+edZUPyKWcj5/Kw1FJLmUGDBll9o7xL/5MnT67RLY5Ln52qbEgqYun/zjvvrNlR6soVTXunnXYqRKLKclN08180LZcHlmu/8Y1v5GpDbumf+gxvMIym6e7REQbbIpb+H3zwQatT6eJ25XL37pcNUCxL5136f+211xJhy5I/+o55l/4ZAFE7iiuXK5/7ZfWHOs0rUYW8Yd0j7OLyQP9I/5d36Z++KLpy1Sx98GWzThFL//S5zawHgAFLvKhkFLH0j/oWk644bF352dALxnmX/qnX6H4L0vClz5I9S+F5+3r6hCQWN8gDadE/FLH0/9RTT1m9cl/ZHK78Mr7QdvMu/aM2E1URRB3rkUceCSdnr1WiWgeJeuRFgN2oU6dObRhNkUR10qRJdQ3el/gyyyxj9VmLIKrstExiSoed+nzUeTsvOmi3WclXtrAfumuQuCJ0VFluQYepmaPOhwwZUghRZfes27DRKN1jjz22EKL62GOPNZ0EuHwsL+ad2JGbpw05onrDDTcYiFUzxwDI7vkiiCqrGOFNjXFpoz8LwchLVJ988klz//33xyVT8Wcj0xFHHJGbqDLw0R8kdXwnfC95iSrkKamdxz333LMy2OfRUWVD1s0335y0qDYcZJHNQUUQ1Yceesiw0a+Za0dfv9tuu1nzb3mJKkQcyxBJXDv6+g022MBsvvnmhRBVNvmxgtfMkR7p5iWqpJXUggrWLa677rpmWes2z3XpvwOqih34UelCNFvt6LyUqEZrIf7ebaZSolqLkRLVWjzi7txmKiWq9QgpUa3HpJmP2zibVCihRLUZotXnbjOVEtUqJmVfKVEtG+EE8TNjbzZTUqKaAEgJ4nRUVaJaj5dKVOsxifNxOqoqUa1FSCWqtXgkuXM6qipRrUVLJaq1eDS6YyUpjUT1+OOPN9jN7ilOiWoH1CQ6f0OHDjXop8U5JapxyNT6K1GtxSN8p0Q1jEbjayWqfnyUqPpxaeSrRNWPjhJVPy4+3zREFa7AHoKs5tR86bfbT4lqu2vg/9NnOQGdEsgq+9uwu/f444/b40u5Z9MNhsCLULCHGCfRo6TBs3kij36h20yF4nl0I4xvHx+6PJQ1r44qNv0abZxw1U4e0MvC8kIROqrUWdj+rUsn+rvsssta+3dFbKZCp9EZ/3fp+LBloxqK/3ntqCKtfvHFF11Ssb/kAX1jVFvytCGno8qmAdpTM4fKChtwitBRvffee+uOW/Rhu+2229pvM6+O6ssvv2z4Vpo5NvnsuOOOuXVU6W+c3qSvXNF8sLGIzSh5dVTR+73rrrui0XtPY2KjGt9o3s1UHEnaTP83igE6sbvvvnshOqqodUQ3w9QBIB6025133rmQvp5vhjaFi5bNev7/PwQlbPrJq6PKuHLHHXeEo65cR9NnPKMd5e3r0T2+5557Kuk0ulhzzTXNwIEDC9FR5fQ7BCO4aNnCeWCjLuMo42keO6qk5Q5PCcdPnw4pBUfGMay7JDlcJxxHp18rUe30Gvr//CHh4WSqIoiqGvyvrXR3MlURRFUN/tdi606mKoKoqsH/KrbuxKS8u/7V4H8VU9+Vw7mIzVRq8L8WYTVPVYtHozskqj6D/43e6UnPlKh2k9pUopqsotzSv55MVY+X2lGtxyTOxy3968lUtQipHdVaPJLcuaV/Jaq1aClRrcWj0Z0S1UYy60bI6bOWIqBENRncSlTjcVKiGo9N9IkS1SgiXfdKVP24NPJVoupHR4mqHxefrxJVJaq+dtFxfkpUk1WJEtV4nJSoxmMTfaJENYpI170SVT8ujXyVqPrRUaLqx8Xnq0RViaqvXXScnxLVZFWiRDUeJyWq8dhEnyhRjSLSda9E1Y9LI18lqn50lKj6cfH5KlFVouprFx3np0Q1WZUoUY3HSYlqPDbRJ0pUo4h03StR9ePSyFeJqh8dJap+XHy+SlSVqPraRcf5KVFNViVKVONxUqIaj030iRLVKCJd90pU/bg08lWi6kdHiaofF5+vElUlqr520XF+SlSTVYkS1XiclKjGYxN9okQ1ikjXvRJVPy6NfJWo+tFRourHxeerRFWJqq9ddJyfEtVkVaJENR4nJarx2ESfKFGNItJ1r0TVj0sjXyWqfnSUqPpx8fkqUVWi6msXHeenRDVZlShRjcdJiWo8NtEnSlSjiHTdK1H149LIV4mqHx0lqn5cfL5KVJWo+tpFx/kpUU1WJUpU43FSohqPTfSJEtUoIl33SlT9uDTyVaLqR0eJqh8Xn68SVSWqvnbRcX5KVJNViRLVeJyUqMZjE32iRDWKSNe9ElU/Lo18laj60VGi6sfF56tEVYmqr110nJ8S1WRVokQ1HiclqvHYRJ8oUY0i0nWvRNWPSyNfJap+dJSo+nHx+SpRVaLqaxcd56dENVmVKFGNx0mJajw20SdKVKOIdN0rUfXj0shXiaofHSWqflx8vkpUlaj62kXH+SlRTVYlSlTjcVKiGo9N9IkS1SgiXfdKVP24NPJVoupHR4mqHxefrxJVJaq+dtFxfkpUk1WJEtV4nJSoxmMTfaJENYpI170SVT8ujXyVqPrRUaLqx8Xnq0RViaqvXXScnxLVZFWiRDUeJyWq8dhEnyhRjSLSda9E1Y9LI18lqn50lKj6cfH5KlFVouprFx3np0Q1WZUoUY3HSYlqPDbRJ0pUo4h03StR9ePSyFeJqh8dJap+XHy+SlSVqPraRcf5KVFNViVKVONxUqIaj030iRLVKCJd90pU/bg08lWi6kdHiaofF5+vElUlqr520XF+SlSTVYkS1XiclKjGYxN9okQ1ikjXvRJVPy6NfJWo+tFRourHxeerRFWJqq9ddJyfEtVkVaJENR4nJarx2ESfKFGNItJ1r0TVj0sjXyWqfnSUqPpx8fkqUVWi6msXHefniCoZ69OnT6b8ffTRR+Z///ufGT58uBkwYEDTOF566SVzxRVXmNlmm8307t27aXhfgPfff9/QxA455BCzyiqr+ILU+LnOa6GFFjJzzDFHzbMkNxBVBoY11ljD7L///kleMU8//bS55pprTK9evczCCy+c6J1ooHfffdeQ9qhRo8zSSy8dfVx3//DDD5tbb73VzD///GaBBRaoe57E4+233zZffvmlOeOMM8x8883X9BUlqk0hqgRQolqBouZCiWoNHIlulKj6YXJ9/WKLLZa5r6ffXX311c0BBxzgTyTi+8ADD5jbb7/d9rn0vVmc63fPOussO2Y0i+OWW24xU6ZMMYxp8847b7Pg3udKVJWoehtGp3l+8MEH5uyzzy4kW3vttZdZf/31m8b16quvmnHjxjUNlyTAYYcdZlZcccWmQS+++GLz+uuvNw3XLMDaa69t9t1332bB7HNHVLmZe+65E70TDfTf//7XeqUlqrz0ta99LRpdonsmHbg0RJXwedPbcsstzTbbbENUTd1zzz1nrrrqKhuOCU8W57qoww8/3Cy//PJNo3jiiSfMjTfe2DRckgAnnXRSoonhqaeeambOnJkkyoZhBg8ebIYNG9YwDA9JizTzug022MDsueeeiaNxRDXxCzEBl1hiCcPEKYmjD6IvyuuYKDNhTuPCOM8+++xpXq2E/eqrr+z1dtttZ7bYYouKf9xFWCiR95tJKpS48sorzYsvvmizlCVN940ut9xy5sgjj4wrWo2/I6p45kkzC1HNmnS3kxsAAAw0SURBVCbvubKmJap502RsGj16NNHMcm42AT2Y5UrdTQt89913m7feequS+2effdZKSGnAvg8dCR+d5AorrGAWXHBB+x7Su6222irRzI6m8Yc//MEgiXUOEoA/0kefg7CRJp2Hk/ItssgitoOec845fa/U+NFZPvnkkxU/BihmsJAr3/tIFCln3759bTl5EUnsoEGDzFJLLVWJp9HFm2++aeg087q55prLnHjiiRWsG8XnpNWNwiR5xiwdMuXDJvp+eGCIPktzn3SiQ5yffPKJueSSS6yU26XhSL2vzRLGdUnUuSMHrCJAMlybcnH5fpnUsRLgiCPxkQ+ciy/6niMTxO/yteSSS5oDDzwwEba/+93vzFNPPVXJ+2effWal3cTl4gunSZ74o83wh+N31113Nauuumo4aOw1qwCvvPJK5fmnn35qv724NF0Z6S/Alr8ddtjBMKlL6vg2kUi5uJgsUZ9xabpy8k26PoOwm266qRkyZEiiZJFGTZ48uYIt3zt/zdLkm5hnnnlsGtQ7/d7AgQMTpekCkf/x48fX4Oyepfml7Pvtt59ZaaWVmr5Gn3bZZZfV9PVZvhn6etJkUtDMgTF9PeXFffHFF7b9cg3OUefC8cy1X66p06T1etddd5mHHnqoEnXSNKlL2i6OayYASet1+vTpZsKECbb98D7t2E34feUkjCtrWIixvEyYR4wY4cWGd8LuhRdeMNdff30Fz6xp8p0y8ZgVnRLVblzrSFgZlBdffHHvAMyyO4M1g23//v0LKekJJ5xgPzgGcZ9zS+BHH320WWaZZXxBUvk1WzaBEIDBRhttZHbfffdUcYcDEwcDPY5BgYGCThCS7XNgy4By8MEH2+V7wqA2kGZphwkAAy5uxowZVvJIBxynfkAYHGTYOYiq67SdX9wvHfKHH35YeXzDDTeY1157zap1+Igu5A5Mhg4dapC84eiss6oquISbqSC4ZXfCJRlkXbxxv9Qt3wplXHTRRb3B3HIe4Ry58QZM6Okkj7Sf8ADnXnfLwVtvvbXF1/nn+b3ooovMtGnTbBl99UndU59JpWxJ8tJMhYU2R32uvPLKZuTIkUmibBpm0qRJlrgy+fZNXPh+33vvPbPuuuuavffeu2l8aQM0w5nvmm+nSJxb3dc/8P9L5HGqSfRb9PX9+vWzfWBaDH3hW9XXh9Pme6E+IdtxKnUIMhgLzjvvvPCrma+ff/55S5bpZ3wqdRBZBFL07aeddlrmdHrSi0pUu3FttrrzAqqeSlTDzQDySweBFAj9KZ+DNCIBIBwdSl6HDtLYsWObdpjM7ouQ/pLfyy+/3Lz88stWGu0jux9//LGVhLIUzZJ0UU6JqrG4gq8S1fStSolqvQpC0UIJJarVdqlEtYpFu66UqLYL+QLSVaJqTFES1XB1KFHtQkOJarhVpLtWiWoXXipRbb5pNUnLanVfr0S1WitKVKtYtOtKiWq7kC8g3VZ3XmRZJapdFacS1ewNWCWqKlHN3nqMUYmqSlTzqHmF254u/YfR6NxrJaqdWzdNc6ZEVSWqTRtJgwC69F8FR3VUq1ikuVId1foNoqqjmqYFVcOqjmoXFqqjWm0T7kqJqkOiG/4qUVWimqfZKlGtoqdEtYpFmislqkpU2VBahFOi2oWiEtX61qREtR6TbuOjRFWJap7GqkS1ip4S1SoWaa6UqCpRVaKa5osxRnf9p8OL0EpU02PWMW8oUVWimqcxKlGtoqdEtYpFmislqkpUlaim+WKUqKZDqyu0EtUsqHXIO0pUlajmaYpKVKvoKVGtYpHmSomqElUlqmm+GCWq6dDqCq1ENQtqHfKOElUlqnmaohLVKnpKVKtYpLlSoqpEVYlqmi9GiWo6tLpCK1HNglqHvKNEVYlqnqaoRLWKnhLVKhZprpSoKlFVoprmi1Gimg6trtBKVLOg1iHvKFFVopqnKSpRraKnRLWKRZorJapKVJWopvlilKimQ6srtBLVLKh1yDtKVJWo5mmKSlSr6ClRrWKR5kqJqhJVJappvhglqunQ6gqtRDULah3yjhJVJap5mqIS1Sp6SlSrWKS5UqKqRFWJapovRolqOrS6QitRzYJah7yjRFWJap6mqES1ip4S1SoWaa6UqCpRVaKa5otRopoOra7QSlSzoNYh7yhRVaKapykqUa2ip0S1ikWaKyWqSlSVqKb5YpSopkOrK7QS1Syodcg7SlSVqOZpikpUq+gpUa1ikeZKiaoSVSWqab4YJarp0OoKrUQ1C2od8o4SVSWqeZqiEtUqekpUq1ikuVKiqkRViWqaL0aJajq0ukIrUc2CWoe8o0RViWqepqhEtYqeEtUqFmmulKgqUVWimuaLUaKaDq2u0EpUs6DWIe8oUVWimqcpKlGtoqdEtYpFmislqkpUlaim+WKUqKZDqyu0EtUsqHXIO0pUlajmaYpKVKvoKVGtYpHmSomqElUlqmm+GCWq6dDqCq1ENQtqHfKOElUlqnmaohLVKnpKVKtYpLlSoqpEVYlqmi9GiWo6tLpCK1HNglqHvKNEVYlqnqaoRLWKnhLVKhZprpSoKlFVoprmi1Gimg6trtBKVLOg1iHvKFFVopqnKSpRraKnRLWKRZorJapKVJWopvlilKimQ6srtBLVLKh1yDtKVJWo5mmKSlSr6ClRrWKR5kqJqhJVJappvhglqunQ6gqtRDULah3yjhJVJap5mqIS1Sp6SlSrWKS5UqKqRFWJapovRolqOrS6QitRzYJah7yjRFWJap6mqES1ip4S1SoWaa6UqCpRVaKa5otRopoOra7QSlSzoNYh7yhRVaKapykqUa2ip0S1ikWaKyWqSlSVqKb5YpSopkOrK7QS1Syodcg7SlSVqOZpikpUq+gpUa1ikeZKiaoSVSWqab4YJarp0OoKrUQ1C2od8o4SVSWqeZqiEtUqekpUq1ikuVKiqkRViWqaL0aJajq0ukIrUc2CWoe8o0RViWqepqhEtYqeEtUqFmmulKgqUVWimuaLUaKaDq2u0EpUs6DWIe8oUVWimqcpKlGtoqdEtYpFmislqkpUlaim+WKUqKZDqyu0EtUsqHXIO0pUlajmaYpKVKvoKVGtYpHmSomqElUlqmm+GCWq6dDqCq1ENQtqHfKOElUlqnmaohLVKnpKVKtYpLlSoqpEVYlqmi9GiWo6tLpCK1HNglqHvKNEVYlqnqaoRLWKnhLVKhZprpSoKlFVoprmi1Gimg6trtBKVLOg1iHvKFFVopqnKSpRraKnRLWKRZorJapKVJWopvlilKimQ6srtBLVLKh1yDtKVJWo5mmKSlSr6ClRrWKR5kqJqhJVJappvhglqunQ6gqtRDULah3yjhJVJap5mqIS1Sp6SlSrWKS5UqKqRFWJapovRolqOrS6QitRzYJah7yjRFWJap6mqES1ip4S1SoWaa6UqCpRVaKa5otRopoOra7QSlSzoNYh7zii2rt3bzPbbLPV5eqDDz4wX331lTnwwANN//79655n8TjhhBPMl19+aRZeeGHv66SJO/roo80yyyzjDZPG85ZbbjFTpkwxc889t+nVq1fdqzNnzjT8bbTRRmb33Xeve57F47PPPjOnnXaamWOOOcxiiy3mjWLGjBnmiy++sOEWWmghb5g0nm+88YYZO3asmWuuuUyfPn28r7755psmCAIzZswY7/O0nkpUq4gpUa1ikeZKiaoSVSWqab4YJarp0OoKrUQ1C2od8s65555r3nnnnaa5oSPp169f03BJAkDgIHLN3LHHHmuWXHLJZsGaPr/zzjvNfffd1zTcoEGDzC677NI0XJIAjqgSFuLoc59//rn1Bo8iiSqRzjln/eCHP8QYVzRRJU5fmi69YcOGmcGDBxOsEHfcccfZeGaffXZvfEyucIRbYoklvGHSeDJ5YlKH803o8GcCgCPcPPPMY6/z/Lv66qvNM888Y6PwpenS23rrrc3QoUPzJFV596KLLjLTpk1rmubw4cPNgAEDKu/luXBElTgalXPllVc2I0eOzJNU5d1JkyaZyZMn2/tGaa677rpm7733rrxX1EUY50bfTZE40y5px5TXV2b3zRQllHjggQfM7bffbiHzfacuPcaVookqiTZKs0ihBN8L9RmXJv6UFaHFeeedZ8Pl/ff888+bCRMm2Gh85aRv4I9xhfFFnTH/B+w+I/guFPIpAAAAAElFTkSuQmCC;direction=east;" vertex="1" parent="1">
          <mxGeometry x="-142.38" y="802.38" width="324.76" height="140" as="geometry" />
        </mxCell>
        <mxCell id="q81UDSc-nb6d2IdDGGGg-1" value="" style="verticalLabelPosition=bottom;shadow=0;dashed=0;align=center;html=1;verticalAlign=top;shape=mxgraph.electrical.radio.aerial_-_antenna_1;" vertex="1" parent="1">
          <mxGeometry x="-150" y="100.00000000000003" width="80" height="100" as="geometry" />
        </mxCell>
        <mxCell id="q81UDSc-nb6d2IdDGGGg-56" style="edgeStyle=orthogonalEdgeStyle;rounded=0;orthogonalLoop=1;jettySize=auto;html=1;exitX=0;exitY=0;exitDx=0;exitDy=30;exitPerimeter=0;endArrow=none;endFill=0;" edge="1" parent="1" source="q81UDSc-nb6d2IdDGGGg-55">
          <mxGeometry relative="1" as="geometry">
            <mxPoint x="-60" y="720" as="targetPoint" />
          </mxGeometry>
        </mxCell>
        <mxCell id="q81UDSc-nb6d2IdDGGGg-55" value="Lambda&lt;br&gt;915" style="shadow=0;dashed=0;align=center;html=1;strokeWidth=1;shape=mxgraph.electrical.logic_gates.dual_inline_ic;labelNames=a,b,c,d,e,f,g,h,i,j,k,l,m,n,o,p,q,r,s,t;" vertex="1" parent="1">
          <mxGeometry x="-40" y="440" width="100" height="200" as="geometry" />
        </mxCell>
      </root>
    </mxGraphModel>
  </diagram>
</mxfile>
